<?xml version="1.0" encoding="utf-8"?>
<!-- Generator: Adobe Illustrator 23.0.3, SVG Export Plug-In . SVG Version: 6.00 Build 0)  -->
<svg version="1.1" id="Layer_1" xmlns="http://www.w3.org/2000/svg" xmlns:xlink="http://www.w3.org/1999/xlink" x="0px" y="0px"
	 viewBox="0 0 612.5 723.6" style="enable-background:new 0 0 612.5 723.6;" xml:space="preserve">
<style type="text/css">
	.st0{fill:none;stroke:#FFFFFF;stroke-width:4;stroke-miterlimit:10;}
	.st1{fill:#3D3D3D;}
	.st2{fill:#E06565;}
	.st3{fill:#FFFFFF;}
	.st4{font-family:'Lato-BoldItalic';}
	.st5{font-size:16.9172px;}
	.st6{font-family:'Lato-Bold';}
</style>
<path class="st0" d="M134.1,427.4l-31.4-12.2c-12.2-4.8-20.3-16.5-20.3-29.7v0"/>
<path id="NL-FL" class="st1" d="M327.4,271.5l-0.6-0.2l0-0.5l0.3-0.3l0.4-2.1l2.1-4.9l1.2-1.2l2.6-1.3l0.3-0.6v-0.5l-1.8-5.6
	l-8.8-14.1l0,0l0.4-0.3l0,0l8.8,14.2l1.9,6l-0.4,1.3l-3,1.4l-0.9,1l-2.1,5.1L327.4,271.5L327.4,271.5z M372.4,191l1.6,0.3l1.3,1.2
	l1.1-0.4l-1-3l3.2,1l5.7,5.8l1,3.8l0.6-0.3l0,0l1.4,2.5l2.1,1.9v0.5h2.9l0.3,0.2l1.9,0.3l1.4,0.7l3.1,2.1l0.9,1.3l1.6,1.4l1,0.6h0.6
	l3,2.9l0.6,0.9l1.1,2.9l1.6,5.5l1.1,0.6l0.5,0.9v0.9h0.3l0.5,0.4l0.7,1.5v0.9l-0.4,0.7l-0.5,0.1l-0.9,1.1l-1.5,1l-1.8,2l0.1,0.9
	l0.4,0.4l0.7,0.1v-0.4l2.1,0.8l1.1,0.1l1.5,0.5l2.5,2.2l2.6,0.7l1.9,1.9l0.4,0.6v0.4l-0.8,1l-3.6,2.4L411,246l-0.2,0.6l-3.6,2.1
	l-2.3,0.3l-0.8-0.9l-1.3-0.5l-9.3,2l-0.8,0.3l-0.4,0.7h-9.4l-0.1,6.9l3.7,0l1.5,0.3l6.7,7.2l0.5,1.5l1.3,7.1l0,0l-1.1,4.9l-1,1.4
	l-0.4,2.5l-1,2.8v0.5l-0.3,0.3l-1.1-0.4l-0.4,0.2l-2,4.3l0,0.3l0.9,1.3l-1.7,2.5l-0.3,1l-3.1,3l-1.3,0.8l-3.4,3.1l-0.6,0.2l-0.2,0.4
	l-2.5,2h-0.4l-0.6-0.5l-0.3,0.1l-0.1,0.4l0.3,0.5l-0.8,0.6l-0.4,0.6l-1.1,0.8l-1.7,0.7l-1.3,1.3l-1.5,0.4h-1.5l-4.3,3.7l-0.8-0.8
	l-0.6-0.2l-3.9,1.9l-1.1,0.9L356,314l-0.5-0.1l-2.3,0.5l-0.4,0.4l-1.9,2.9l-5.2,16.2l-1.1,2.9l-0.6,0.8l-17.6,5l-2.3,0.9l0,0
	l-3.1-2.6l-8-8l0,0l-3.8-3.8l-4.6-3.1l-9.7-2.5l-11,1.9l-1.1-0.6l-1.2-1.5l0,0l0.2-0.2l-0.3-0.5l1.1-1l-1.4-1.3h-0.4l-0.2,0.2
	l-0.1-0.2l0.5-0.5l0.2-0.7l-0.3-5l-1.7-3.1v-1.5l5.4-3.3l0.8-1.9l7.2-4.2l1.9,0l0.7-0.4l0.5-0.3l1-1.7l3.2-2l20.4-14.4l1.6-0.2
	l1-0.6l6.1-5.5l0.3-1l-0.5-0.9l-0.1-1.2l-0.4,0.2h-0.6l0.1-1.4l0.6-0.2l0.1,0.4l0.2-0.4l0.7-0.2l0.7-0.7l1.4-3.3l1-1.4l4.8-0.3
	l0.7-0.3l5.4-5.1l0.2-0.3l-0.6-0.7l0.5-0.5l0.6,0.5l-0.2,0.2l0.2,0.2l4.5-4.6l10.6-3l1.5-1.3h0.5l1.6-1.6l-5-8.1l-2.8-2.1l-0.1-0.2
	l0.6-0.2l-0.7-1l-1,0.2L354,210l10.6-17.2l1-0.6l6.3-0.8l0.5-0.1L372.4,191L372.4,191z"/>
<path id="NL-FR" class="st1" d="M349.8,192.8l0.1,0.3h-0.3l-1.4-0.6l0.2-0.2h0.9L349.8,192.8L349.8,192.8z M343.4,191.6l-0.7-0.3
	l0.2-0.1l0.5,0.2L343.4,191.6L343.4,191.6z M324.1,160.6l-0.2-0.3l0.2-0.5l0.3,0.3L324.1,160.6z M322.7,150.1l-0.3-0.9l0.1-0.2
	l0.3,0.9L322.7,150.1L322.7,150.1z M318.2,128.4l0.4,0.8l0.6,0.2l0.7-0.2l0.8,0.9l0.4,1.6l1,2l-3-0.2l-0.3-0.9l-1-1.5l-0.4-2.3
	l0.1-0.2L318.2,128.4z M312.7,128.5l0.2,0.8l-0.1,0.3l-0.5-0.2l-0.6,0.4l-0.4-0.1l-4.1,1.2l-13,11.4l-0.1,0.7l-0.7,0.6l-0.4-0.3
	l-0.5,0.4l0.7,0.3l0.6-0.4l0.1,0.1l-0.6,0.5l-1-0.3l-5.6,4.9l0,0l-0.6-0.9l0,0l5.5-4.8l-0.1-0.6l0.7-0.4l-0.6,0.5l0.1,0.3l14.8-13.1
	l0.7-0.4l4-1.1l0.1-0.2l0.5,0.3l0.6-0.2l0.1-0.2L312.7,128.5L312.7,128.5z M271.2,67l4.2,0.8l0.2,0.1l0.2,1.2l-0.7,0.4l-0.5,0.7
	l-0.7-0.3l0.3,0.6l-0.7-0.3h-1.3l-2.4,0.7l-1.2,1.2l-2,1.3l-2.6,1.2l-5.8,2.1l-2.8,1.4l-0.3,0.6l1,2.5l-0.3,0.4l-0.9,0.2l-0.3,0.3
	l-0.1,1.4l0.4,0.2l-0.3,1l-3.9,1.6l-2.1,2.3l-1,0.5l-2.1-0.2l-1.3,0.2l-2.9,1.6h-0.8l-0.5-0.4l-0.8-1.5v-0.8l9-5.7l1.4-1.2l3.4-3.9
	l2.4-1.9l9.3-6.3l2.1-0.6L270,67H271.2z M282.3,71.6l-0.5,0.7l-0.7,0.1l-0.8,1.1l-0.4,0.1l-0.7-0.3l-0.9,0.2V73h0.6l0.3-0.4
	l-0.4-0.7l-0.7-0.2l1.5-1.5l0.2-0.4l1.5-1.1l0.9-1.2l0.5-0.3h1l0.5,1l-0.1,0.8l-0.9,1.7l-0.9,1.1L282.3,71.6z M289.9,44.4l-0.1-0.2
	l0.4-0.4L289.9,44.4L289.9,44.4z M448.4,39.9l-3.7,5.4l0.1,3.4l0.8,2.4l0.5,0.8l1.1,1l5.2,1.4l0.7,0.4l0.6,0.9l0.4,1.7l0.7,0.8
	l1.1-0.2l1.9-1.3l2.6,0.6l2.9,1.3l-0.8,7.3l0.1,0.2l1.5,0.3l0.4,0.6l-0.9,1.1l-1.4,0.5l-0.5,0.8l-0.1,0.9l-0.5,0.6L461,72l-0.2,0.2
	l-1.2-0.4l-1.2,0.7l-0.3,3l0.5,1.6l-0.1,0.9h-0.4l-0.4,0.4l-0.4-0.5H457l-0.4,0.8l-0.7,0.6L456,80l-0.3,0.6l-1,0.4l0.5,0.7l-0.1,0.4
	l-0.7,0.6l0.2,0.7l-0.1,1.3l-2.7,0.4l0.4,1.7l1.3,1l0.3,1.3l0.7,0.9l-0.3,1.2l-0.5,0.6l-0.2,1l-0.7,1.3l-1,0.8l-0.6,0.9l-1,0.1
	l-0.5,0.3l-0.2,1.4l-1,1l-0.3,0.8l-2,3.7l-0.4,2.8l-0.3,6.7l2.8,3.5l2,1.8l5.2,0.8l4.4-0.2l2.3,1.2l1.2,1.1l0.9,1.5l3.8,1.5l0,0
	l-1.3,3.5l9.4,3.6l-0.7,8.9l10.4,16.1l-5.5,10.4l-9.4,6.7l-5-5.1l-6.5-0.6l-1,0.1l-1.2,0.7l-0.7,1.4l-2,1.6l-4.3,5.8l-6.6,4.3
	l-6.7,5.1l0,0l-2,1.6l-1.9,1.2l-0.9,0.1l-0.8,0.4l-0.6,0.6l-0.7,0.1l-2.1-0.2l-1.8,0.7l0.5,2.6l-0.3,0.6l-2.4,1.5l-1.3,0.6l-0.7-1.4
	l-1.8,0.2l-1.3,0.4l-0.5,0.4h-0.5l-0.7-0.1l-0.8-0.7L416,195l-0.7-2l-0.9-1.4l-0.5-2l-2.1,0.5l-0.7,0.5l-0.2,0.4l0.2,1l-1.5-0.6
	l-0.8,0.3l-1.6,0.2l-0.1,0.6l-0.6,0.3l0.2,0.4l-0.2,0.3v1.3l-1.4,0.9l-0.8,1.2l-1.4,0.9l-0.6,0.9l-3.3,1.6l-0.8-0.1l-1.5-0.8H396
	l-0.6-0.3h-1.5l-0.9-0.4l-0.6,0.6h-0.4l-0.4-1.1l-1.9-1.1l-0.2-0.4l-3.8,2.6l0,0l-0.6,0.3l-1-3.8l-5.7-5.8l-3.2-1l1,3l-1.1,0.4
	l-1.2-1.2l-1.6-0.3l0,0l0.1-1.1l-0.4,0.4h-0.3l-0.3-0.3l-0.5,0.5l-0.4-0.4l0.1-0.8l-0.4-0.3l-2.1-0.3l-1.9,0.1l0.3-0.9l-0.2-0.1
	l-0.4,1.1l-0.5,0.1v0.6l-0.5-0.4l-1.2,0.1l-0.1-0.3l-0.6-0.5l0.4-0.3l-0.1-1.8l-1.9-1.3l-1,0.3l-3.2,2.2l-2.2-0.3l-2.8,0.6l-0.4,0.7
	l-0.3,1.7l-0.4,0.4l-1.9,1.1l-2.3,0.5l-0.8-0.1l-3.5-1.4l-6.5-3l-4-1.2l-1-0.1l-0.5,0.2l-0.1,0.6l-1.5,0.1l-2.3,0.8l-1.4-0.5
	l-2.9-1.7l-2.4-2.6l-2-1.5l-0.8-0.9l0.3-0.5l-0.1-0.3l-0.7-0.1l-1.1-1.8l0.7-0.6l0.5-0.9l1.6-1.8l2.3-1l0.6-0.6l1.6-0.4l0.9-1.2
	l0.2-2.7l-0.3-0.6l-0.5-3.6l-0.9-1l0.8-0.7l0.5,0.2l0.4-0.3l-0.1-0.2l-0.6,0.1l0.1-0.2h0.6l0.2,0.3l0.2-0.2v-1.8l0.1-0.2l0.3,0.3
	v-0.3l-0.5-0.7l-0.1-0.6l-0.5,0.2l-0.3-0.2l1.2-0.3l0.2-1.2l-0.9-3.2l-0.3-0.4l-0.3-1.1l0.1-0.6l-0.3-0.2l-0.2-1.4l0.1-2.6l-0.4-0.5
	l1.4-2.3l-0.3-0.5l0.4-2.2l-0.4,0.1l-1-0.5l0.2-1.2l-0.4-0.3l0.2-0.3h0.6l0.1-1.1l0.2,0.4l0.2-0.1l-0.5-1.4l0.3-2.5l-0.7,1.6
	l-0.1,2.1l-0.6,0.4l-0.4-0.4l-0.1-0.9l-0.6-1.3l-0.4-0.7l-1.1-1l-0.3-1.6l0.2-0.2h1l0.2,0.7h0.6v-0.7l0.7-0.1l0.5,0.8l0.7-0.1
	l-0.7-1.8l-0.6-0.7l-0.5-1l-0.3-1.2l0.2-0.9l-0.2-1.1l-1.4-3.1l-0.3-0.1l-0.6,0.1l-4,3.7l-1.1,0.5l-0.3,0.5h-0.5l-0.4-1.5l0.2-0.2
	l0.3,0.2l0.9-0.3l0.6-0.4l4.4-4.3l0.3-0.4l0.4-2.1l-0.3-0.6l0.1-0.3l2.6-1.6l1.4-1.8l0.9-3.2l0.4-5.9l0.5-2.2l0-1.1l-0.9-0.5
	l-0.2-0.6l0.6-0.6l0.2-0.6l1.1-0.6l0.2-0.7l-0.2-0.2l1.3-3.9l0.7-1.4l0.6-1.9l1.6-2.6l2.4-2.1l3.2-3.6l1.3-0.5l1.9-1.4l1.9-1.1
	l0.4-0.4l1.7-0.9l1.5-1.9l2.9-2.6l1-2.7l4.4-4.4l4.5-2.3l2-0.4l6-2.3l1.5-0.3l1.4-0.7h1.1l1.7-1.2l9.9-5.8l3.7-1.4l1.5-0.9l0.7-0.1
	l0.4-0.5l2.3-0.6l1.7-1.3l3.4-1.9l2.4-0.8l0.9-1l1.7-0.5l0.7-0.5l-1.7-2.5l0.1-0.2l0.4,0.6l0.4-0.4l0.3,0.7l-0.2,0.3l0.9,1.3
	l1.3,0.2l1-0.6l2.3,0.3l4.6-1.3l1.9-0.8l1.9-0.3l0.2-0.5l0.4,0.5l2.4-0.4l4.2-1.3l4.3-0.3l4.1-0.7l2.5,0.7l0.3-0.7l0.3,0.7l0.7-1
	l0.3,0.5l1.5,0l5.2,0.9l6.3-3l1.1-0.1L448.4,39.9L448.4,39.9z M343.1,30.5l-1.8,0.2l-0.2,0.3l0.3,0.3l4.2-0.6l0.6,0.1l0.4,0.7
	l-0.5,1.8l-2.4,1.4l-0.7,0.2l-1.1,0.2l-0.3-0.1l0.1-0.2l-0.2-0.1l-0.3,0.2l-0.4-0.1l-1.9,1.4l-2.8,1.4l-1.5-0.2l-0.8-0.8l-0.1,0.7
	l0.4,0.7v0.9l-1.5-0.4l-1.3-0.9l-0.9-0.2l-0.1,0.3l0.2,0.2l2,1.4l2.5,0.9l-0.3,0.4l-0.5-0.3l-0.4,0.1l-0.4,0.4l0.3,0.3l-0.4,0.3
	l-1.5,0.3l-6.5-0.2l-2.1,0.1l-2.5,0.6l-1.3,0.6l-3,3l-1.9,1.2l-1.1,0.4h-0.8l-1.4,1l-1.9-0.6l-0.4,0.7l-1,0.5h-0.8l-0.5,0.6
	l-0.1,0.6l-1.4-0.2l-1.5-0.6l-1.6,0.6l-1.4-0.4l-2.5,2.2l-0.1-0.3l-0.6-0.3l-2.6,0.3l-0.7,0.9l0.1,1.3l-0.2,0.2l0.2,0.5l-0.5,0.1
	l-0.6-0.5h-0.6l-0.3,0.4l-0.8,0.4l-0.9,1.2l-0.8,0.4l-0.7,0.9l-1.9-0.5l-2.4-1.6l-0.2-0.4l-0.4-2.2v-1.1l0.9-1.1l2.5-2.2l1.6-2.3
	l0.6-1.6h0.2l-0.2,0.8h0.3l0.2-1l0.7-0.8l-0.1-0.2l-0.6,0.1l0.5-0.3l16.8-3.2l3-0.7l0.4,0.4l0.8-0.1l15.4-5l0.7-0.7L331,33l9.6-3.8
	l3.1-0.6h1.7l0.8,0.2l0.3,0.3v0.6l-0.3,0.4L343.1,30.5L343.1,30.5z M427.8,27.1l0.3,2.1l-0.4-0.7l-0.5,0.6l-1.2,0.6l-0.5,0.7
	l-0.9-0.4l-0.3-1.5l0.9-1.4l1.2,0.1l1.2-0.3L427.8,27.1L427.8,27.1z M374.3,27l8.5-0.3l10.7-1.2l2.3,0.4l11.2-0.6l5.9,0.2l1.1,0.2
	l0.7,0.7l-0.3,0.6l-0.6,0.3l-1.6,0.3l-3.7-0.1l-1.4,0.2l-3.4-0.3l-2.2,1l-0.7,0.6l-2.5,0.6l-0.5,0l-1.3,0.6l-4.4,1l-0.3,0.3
	l-4.4,1.2l-2.9-0.2l-1.5,0.3l-0.2-0.1l-0.1,0.9l-0.3,0.3l-0.4-0.2l0.3-0.2l0-1.3l-3.1-0.2l-2.9-0.7l-1.6,0.1l-0.6,0.4l-0.5,1.2
	l-2.2,1.7l-2.4,0.7l-1.3,0.7l-2,0.1v0.9l-0.5,0.4l-0.9-0.3l-2.3-1.5l-2.2-1l-1.2-1.3l-1.5-2.3v-1.6l0.7-3.3l0.7-1.1l0.8-0.6l1-0.3
	h1.5l3.4,1.4l5.5,1.3L374.3,27L374.3,27z M441.9,14l1.4,0.3l1.5,1.5l2.1,0.4l2.4,0.1l11.6-1.6l6.4-0.6l5.8-0.2l0.3,0.4l-0.3,0.7
	l-2.5,1.3l-1.5,0.6l-1.7,0.3l-3.5,1.7l-1.9,0.4l-1.1,1.3l-4,1.9l-1,0.2l-3.1,0.1l-3.6,0.8l0.8,1l-0.1,0.3l-0.8-0.5l-0.4-0.6h-4.2v1
	h-0.3l-0.2-1l-1.1,0.2l-0.3,0.7l-0.4,0.2l0.4,0.6l-1.4-0.2l-0.4,0.3l0.4,0.6l-0.3,0.2l-0.1,0.5l0.5,0.7l-1,0.2l-1.4-0.5l-0.8,0.1
	l-1.1,1.5l-0.5,0.1l-0.6-0.3l0-0.2l0.4-1.1l0.3-2.2l0.5-1.8l1.2-2.2l1.4-2.1l3.1-2.8l0.8-0.3l-0.2-0.4l-6-1.4l-1.2,3l-0.7,0
	l-0.3-0.2l0.1-1l1.1-2.5h2L441.9,14z"/>
<path id="NL-GE" class="st1" d="M396.5,273.5l2.1-0.8l2.5,2.2l2.1,2.6l1.1,1.9l1.6,3.5l0.5,1.6l1.2-0.5l0.6,0.6l2-1.5l0.9-0.2l1.4,2
	l6.9-7.1l1.7-0.6l0.7-0.5l0.4-0.8l1,0.5l0.6,0.1l3,2.4l1,2.5l0.8,1.2l1.3,1l2.4,1.1l1.4,1.6l0.4,1.3l0.2,2.8l-0.2,2.4l0.6,0.8
	l1.3,0.9l2.4,3.5l0.9,2.6l0.1,1l-0.9,3.4l-0.7,1.4l0,2.4l-0.3,0.7l-0.4,0.5l-2.8,1.1l-3.1,0.6l-0.6,0.9v0.9l0.3,0.6l0.4,0.3l1.3,0.3
	l0.5,0.4l0.2,0.5l-0.9,0.7l-1.6,0.5l-0.4,0.7l0.2,2.6l-0.2,2.5l-0.3,1.8l-0.6,0.8v0.5l1.6,0.2l0.5,1.2l0.1,2.8l1.1,0.3h1.6l0.3,0.6
	l0.5,1.4l0.8,1.2l0.1,2.5l1.5,1.9l0.5,2l0.9,0.8l-0.9,1.3v1l1.8,0.4l0.9,0.6l2-0.2l0.1,0.5l-0.3,0.9l-1.1,0.7l-0.3,0.9l0.4,1.6
	l1.1,0.8l1.4,0.3l0.4,0.8v0.8l0.3,0.3l0.3-0.3v-0.5l-0.6-0.7l-0.3-0.9l0.6,0.3l0.1-0.2l-0.3-0.3l0.4-0.7l0.7,0.8l0.1-1.5l0.2-0.9
	l0.2-0.1l0.7,0.1l0.6-0.3l1,0.3l1.7-0.1l2.3,1.7l2.4,0.3l1.1,0.4h1.1l0.4,0.3l2.1-0.2l1.5,0.4l0.1-0.8l1,0.4l0.4-0.5l1.8-0.5
	l0.1,0.4l0.5,0.1l0.1,0.4l0.5,0.4h3.3l1.3-0.4l1.4-0.1l0.1-2.2l1-0.7l0.6-0.1l0.3-0.7l3-0.2l1.8-0.8l0.9,0.4l2-0.1l2.6,0.3l0,1.3
	l1.1,1.6l0.6,1.9l3.2,3.3l1.3,2.6l0.9,0.4l1,0l0.3,0.3l0.1,1.4l0.9,2l0.5,0.7l1.5,0.8l0.5,0.5l0.5,0.2l3-1.1l6.3,1l5.7-1.2l0.1-0.3
	l0.5,0.3v0.4l1,0.4l0.3,0.6l0.7,0.5l-0.5,1l0.1,0.4l1.3,1.2l1.3-1l0.7-0.2l0.3-0.8l0.4-0.3l0.8,0.3l0.8,1.1l0.8-1.4h0.7l3.3,1.7
	l0.4,0.4l0.3,0.9v0.6l-0.5,0.8l0.4,0.2v1.4l0.2,0.7l-0.2,1.6l-1.7,2.7l2.3,1.1l3.5,0.6l2.7,1.3l7.1,0l0,0l-0.7,5.3l-0.5,0.9
	l-0.1-0.4l-0.4-0.1l-0.9,0.9l0.1,0.7l0.8,0.7v0.7l-2,2.4l-6.6,1.2l0.3,0.7l-0.1,0.8l-1,2.1l-0.5,0.2l-0.1,1l0.2,0.3v3h4.3l6.2,3
	l1.5,1.4l0.5,1.1l1.1,0.4l5.4,4.4v1l0.3,0.3l2.9,0.4l0.5,1.6l-0.2,1.8l0.5,2l-0.3,1.1l-0.5,0.8l-2.1,0.1l-0.8,0.7l-1.7,0.6l-0.4,3.3
	v2.2l-1.7,1.7l0.4,0.4l-2.5,3.1l-2.9,1.2v0.9l-0.3,0.3l-2.3,0.8l-0.8,1.4l-1.5,0.7l-2.6-2.1l-0.5-0.6l-0.1-1l-0.4,0.2l-0.3-0.1
	l-0.6-1.4h-0.8l-0.8-0.5l-0.8,0.2l-6.3,3l-1,1l-0.6,0l-0.8-0.3l-7.3,2.5l-1.9,1.3l-1.2,1.1h-0.5l-0.7-1l-1.2,0.5l-1.2,1.3l-1.6,1
	l-1.8,0.8l-1.5,1l-0.5,0.4v0.7l-0.7,1l-3.2,0.9l-1.4,0.8l-0.9-0.3l-1.6-2.1l-0.7-0.6l-0.9,0.7l-2,1l-0.5-0.4l-0.3-1.4l-1.7-0.6
	l-0.4-0.6l-2.6-0.2l-0.8-0.7l-0.4,0.1l0.1,0.7l-0.6,1.7l0.1,0.4l2.4,2l1.2,0.3l0.1,0.4L482,447v1l0.7,1.5l-0.1,0.2l-0.6-0.2l0.5,1.8
	l-0.1,0.4l-0.5,0.2l-2.7-1.9l-2.5-0.1l-1-0.5l0.2-0.7l-0.6-1.5l-1.1-1l-4.7-0.6l-2.9,0.3l-0.8-3.6l-0.4-0.3l0.2-0.8l-1.7-0.8
	l-0.8-0.1l-0.5-0.5l-1.2-0.2l-0.7,0.3l-0.7,0.9l-1.3,0.4l-2.6,0l-0.7-0.2l-2.9,0.4l-0.8-0.2l-2-1.1l-2.2-2.3l-0.1-1l1.2-0.2
	l-0.4-0.5l0-0.5l-3.4-2.6l-0.2,0.5l-1.9-1.2l-3.6,0.6l-1.1,0.8l-1.2-0.9l-0.6,1.1l-0.5-0.3l-0.3,0.3l0.1,0.7l-0.8,0.6l2.5,0l1.7,1.2
	l1.1,0.5l0.9,2.4l0.1,1.4l3.1,2.5l-0.1,1.5l0.4,3.5l-3.3-1.3l-2.4-0.5l-2.7,0.1l-2-0.5l-1.3-0.6l-2.5-2.2l-1.8-1.1l-0.9,1.6l-1,0.4
	l0.4,0.8l-0.1,0.6l-1.9,1l-1.3,1.2l-0.5-0.5l-1.9,0.7l-0.8,1.6l-1.9,0.9l-2.3,0.3l-1.5-0.6l-1.2-0.1l-1.3-0.8l-2.6,3.2l2.1,1.6
	l-0.5,0.7l-0.2-0.2l-0.2,0.2l-0.4-0.3l-0.2,0.2l-0.3-0.2l-0.3,0.3l0.1,0.5l2.7,1.5l0.6,1l1.6,1.3l0.1,0.4l-0.6,0.4l0.4,0.4l-0.6,1.2
	l0.5,1h1l0.7,0.5l0.5-0.2l0.2,0.3l-1,1l-0.2,1.4l1.1,1.3l-0.1,0.7l-5,3.7l-0.5,0.2l-0.3,0.4v1.3h-0.6l-0.2,0.5l-0.4,0.2l-1.8,0.1
	l-0.6-0.7v-0.5l-0.7-0.6l-1.1-0.6h-0.7l-0.5-2.9l-3-3.8l-1-0.2l-3.3,0.4l-0.1,0.6l0.9,3.1l-0.9,0.9l0,0l-2.4-0.4l-7.1,0.8l-3.8,1
	h-2.3l-1.1-0.2l-1.3-0.6l-0.9-0.8l-0.9-1.4l0.2-0.1l-0.4-0.7l-1.2-1.2l-0.7-0.4l-3-0.5l-0.8-0.7l-1.1-1.9l-1.2-1.1l-3-0.5l-1.7-1.1
	l-1.1-1.6l-0.9-2.8l-1-1.1l-0.8-0.2l-2,0l-0.9-0.4l-2.6-1.7l-2-0.5l-1.9,0.4l-2.8,0.2l-0.7,0.6l-1.2,1.9l-1,0.3l-3.3-0.8l-2.4-2.4
	l-1-0.5h-0.6l-1.5,0.7l-0.6,1.1l-0.2,1.5l-0.7,1l-0.9,0.6l-2,0.5l-1,0.1l-2.2-0.2l-1.6-0.7l-1.5-2.1l-0.5-0.3h-1.3l-0.5,0.4
	l-0.8,1.4l-1.9,2.4l-2.8,4.7l-1,3.3l-0.1,3.4l-0.6,1.1l-0.8,0.6l-5,2.3l-3.2,2.2l-0.7,0l-2.1-0.8l-1.8-0.2l-1.1,0.4l-1.2,1l-1,0.3
	l-1.2-0.4l-1.6-1.5l-1.1-0.5l-0.9-0.1l-3.7,0.8l-3.1-0.8l-2,0.1l-5.6,1.4l-0.1-1.9l1.8-1.5l0.7-1l-0.7-0.6l-0.3-0.7l0.1-1l0.5-1.4
	l-0.1-0.7l-3.7-1.9l-1.6-1.7l-0.8-0.4l-1-0.1l-0.9,0.4l-1.5,1.6l-1.1,0.1l-0.6-0.2l-1.4-1.5l-0.7-1.5l-0.8-0.5v-0.7l-0.4-0.4
	l-4.2-1.9l-1.1-1l-0.9-2.1l-0.9-0.7l0,0l2.4,0l1-5l-3.4-0.5l-1-1.6l0.3-1.4l-0.6-1.9l0.4-0.4l1.8,1.6l4-0.1l1.5,0.6l0.5-0.6l1.8-0.7
	l0.6-0.6l-1.1-0.7l-0.4-0.9l0.3-0.9l1.3-0.6h1.9l1.1-0.6l1-1.6l0.2-1.3l0.5-0.4l0.9,0.3l1-0.3l1.7,0.4l0.4-0.7l0.3-2.2l2.2-4.1
	l0.8,0.4l-0.1-1.6l2-2.9l-0.1-0.6l0.5-0.1l4.6-8.7l0,0l2.2,1.4l2,0.4l0.9-0.2l1.1-1l1.4-2.7l0.7-0.8l1.2-0.3l1.3,0.7l1.9,1.9l1.8,1
	l2,0.5l2.6,0.3l2.5,1.6l1.4,0.1l1.9-1l1.6-2l1.3-0.9l1.3-0.2l2.3,0.5l1.5-0.1l5-1.9l2.1-1.8l1-0.6l4.3,0.9l2.8-0.3l0.9,0.2l2.2,1.3
	l1,1l5.1,1.9l1.1,1.8l1.1,0.9l1.2,0.5l4.1,1l2.7,1.8l1.6-1.4l0.9,0.5l-0.1-1.3l0.9-0.2v-1.5l-0.7-1.7v-0.7l0.4-0.6l0.2-1.1l-1.6-1.9
	L357,410l-0.7-1.1l-1-0.2l-1.3-1.2l-0.6-0.7l-0.1-1.6l-0.3-0.4l-0.5-0.5l-0.4,0.4l-1.5-1.7h0.9l0.2-4.5l-3-1.1l0.2-1.8l-1.2-0.6
	l0.6-1.5l0.4-3.8l-0.2-0.4l0.5-1.9l-0.3-2h-0.4l-0.5-0.6l-0.1-1.9l-0.6-0.4l0.3-0.7l-0.3-1.5l-1.1,0.2l0.1,0.5l-0.3,0.1l-0.4-0.5
	l-1.4,0.4l0.1,0.7l0.5,0.2v0.4l0.4,0.3l-0.4,1l0.9,0.2l-0.1,0.7l-0.1,0.5l-1.3-0.4l-0.5,0.9l1,0.4l-1.5,1.6l-1.3-0.3l-1.4,0.1
	l-0.4,1.4h-1.9l-1.3,0.5l-2.7-1.6l-0.1-0.5l-0.6-0.1l-0.3-0.3l1.7-2.2l2.3-1.4l-0.2-2.7l1.4-1.3l0.1-0.5l-1.1-0.7l3.3,0.3v-0.4
	l-0.7-0.4v-0.9l-0.8-0.3l-0.7-0.9l0.4,0.1l0.2-1.4l1.7-0.3l0.8-1.5l-2-1l-0.1-0.4l0.3-1.5l-1.6,0l-1.3-0.6l0.2-1.7l-0.5-0.1l0.1-0.5
	l-1-0.4l-0.1-0.4l-6-0.8l-2.5-0.9l0.1-0.9l-0.3-1.5l-0.5-0.5l0.7-0.5l1.2,0.4l0.6-0.5l0.4-2l0-1.5l-6.5-5.3l1.8-7.8l0,0l2.3-0.9
	l17.6-5l0.6-0.8l1.1-2.9l5.2-16.2l1.9-2.9l0.4-0.4l2.3-0.5l0.5,0.1l0.7,0.9l1.1-0.9l3.9-1.9l0.6,0.2l0.8,0.8l4.3-3.7h1.5l1.5-0.4
	l1.3-1.3l1.7-0.7l1.1-0.8l0.4-0.6l0.8-0.6l-0.3-0.5l0.1-0.4l0.3-0.1l0.6,0.5h0.4l2.5-2l0.2-0.4l0.6-0.2l3.4-3.1l1.3-0.8l3.1-3l0.3-1
	l1.8-2.5l-0.9-1.3l0-0.3l2.2-4.2l0.4-0.2l1.1,0.4l0.3-0.3V285l1-2.7l0.4-2.5l1-1.4L396.5,273.5z"/>
<path id="NL-GR" class="st1" d="M543.1,27.6l0.7,0.4l0.7-0.1l2-1.9l0.5-0.2l2.8,1.1l0.3,0.9l-0.1,0.7l-0.3,0.6l-2.8-0.5l-0.1,0.5
	l2.5,0.6l-0.2,0.7l-1.3-0.2l-0.2,0.4l2.1,0.5l1.1-0.1l1.2,0.3l0.1-0.5l-1.2-0.2l-0.3-0.3l0.7-2.5l3.1,1l3.5,3.3l-0.1,1.3l-1.3,3.5
	l-0.2,3.7l0.9,0.9l1.4,2.4l-0.4,0.7l0.6,0.2l0.2,0.5l-0.2,2.8l0.9,2.7l0,1.3l0.9,3.9l0.3,0.6h1l2.9,2.6l0.7,0.9l0.8,0.1v0.5
	l-0.6,0.1l-0.4,1.3l1.7,0.5l0.4,0.6L568,63l1.9,0.7l0.5,0.4h0.9l0.8,0.3l2.5,1.2l0.8,0.2l1.1,1l1.1,0.7l2.6,1l2.1-0.1l1,0.3l0.4,0.4
	l4.7-0.1l0.7-0.9l1.8-0.3l0.6-0.7h0.5v0.7l-0.4,0.1l-1,1.3l-0.9,0.7l-0.3,2.3l0.3,1.9l-1.3,3.5l0.1,1l0.6,0.3l0.1,0.7l0.5,0.5
	l1.1,0.6l0.4,0.5l0.6,0.1l0.3,0.6l2,0.1l0.7-0.3v0.4h0.2l2.5,0.1l1.6,1.2l1.9,0.5l1.1-0.4l1.5,1.1l1.9,0.3l0.4,0.4l2.9,0.7l0.3,0.2
	l0.3-0.3l-0.2-0.6l0.5-1.2l0.5,3.7l-0.1,1.2l0.7,2l0.2,4.7l-0.2,0.8l-1,1.2l-0.3,0.7l2.9,2.1v0.6l-2.5,1.1h-1.3l-1.7,3.2v0.7
	l-0.4,0.8l-0.1,2.5l-1,1.8l-0.5,0.4l0.6,4.4l2.8,2.1l-0.3,8.8l2.2,17.4l0.8,2.1l-1.3,1.6l-3.9,13.7l-0.2,1.6l-12.1,20.1l-2.6,3.4
	l-0.3,0.8l0.8,3l0,0l-3.2,0.2l0.1-1.5l0.4-1.2l-0.2-0.1l-0.7,0.4l-0.4-0.1l-0.6-0.9l-0.4-0.2l-2.3-3.4l-0.6,0.1l-0.5-1.9l-3.8-0.4
	l4.5-10.9l-3.3-0.9l-1.3-1.4h-0.2l-8.2-12.4l-4.5-6.2l-7.5-7.6l-9-10.3l-2.5-2.3l-3.1-3.6l-6.8-7l-0.8-1.1l-1.3-0.8l-6.6-0.3
	l-2.7,0.7l-6.5,3v-1.8l-0.7-0.3l-0.4-1.2l-0.7-0.6l-1.1-2.9l-0.7-0.3l-0.8-1l-2-1.8h-1.3l-0.5-1.9v-1l-0.7-1.2h-0.4l-2,0.9l-1.1-3.2
	l-2.3-4.1h-0.6l0.1-0.5l-1.1-2.1h-1.1l-4.3-1.9l-1.3,0.3h-1.4l-2.7,0.9l-2.7,0.5l-0.1,0.9l-1.4,1.3l-1.1,0.3l-0.2,0.3l-2.2,1.5
	l-1.5,0.7l-0.3,0.5l-0.2,2l-0.7,0.7l-0.6,0.2l-1.1,1.8l-1,1l-0.3,1.8l-2.6,6.2l-0.4,3.4l-1.2,0.4l-2,5.3l-4.3-1.6l0,0l-3.8-1.5
	l-0.9-1.5l-1.2-1.1l-2.2-1.2l-4.4,0.2l-5.2-0.8l-2-1.8l-2.8-3.5l0.3-6.7l0.4-2.8l2-3.7l0.3-0.8l1-1l0.2-1.4l0.5-0.3l1-0.1l0.6-0.9
	l1-0.8l0.7-1.2l0.2-1l0.5-0.6l0.2-1.2l-0.7-0.9l-0.3-1.3l-1.3-1l-0.4-1.7l2.7-0.4l0.1-1.3l-0.2-0.7l0.7-0.6l0.1-0.4l-0.5-0.7l1-0.4
	l0.3-0.6l-0.1-0.7l0.7-0.6l0.4-0.8h0.3l0.4,0.5l0.4-0.4h0.4l0.1-0.9l-0.5-1.6l0.3-3l1.2-0.7l1.2,0.4L461,72l0.2-1.1l0.5-0.6l0.1-0.9
	l0.5-0.8l1.4-0.5l0.9-1.1l-0.4-0.6l-1.5-0.4l-0.1-0.2l0.8-7.3l-2.9-1.3l-2.6-0.6l-1.9,1.3l-1.1,0.1l-0.7-0.8l-0.4-1.7l-0.6-0.9
	l-0.7-0.4l-5.2-1.4l-1.1-1l-0.5-0.8l-0.8-2.4l-0.1-3.4l3.7-5.4l0,0l0.6-0.3l0.8-0.1l0.3,0.3l-0.3,0.3l0.1,0.4h0.6l6-1.8l1.5-0.1
	l1.3,0.4l5.2,2.9l0.8,0.5l1.3,2h0.2l2.3-1.4l1.8-1.6l4.8-2.2l4.5-1.7l6.6-1.1l19.7-2.3l4.8-1.4l2.8-1.1l2.4-1.3l4.4-1.8l7.5-2.4
	l7.1-0.9h1.7l4,1.3L543.1,27.6L543.1,27.6z M482.5,10.9l0.7,0.1l-0.1,0.7l-2.1-0.3l-1.7,0.1l-0.2-0.4l0.3-0.4l0.9-0.1L482.5,10.9
	L482.5,10.9z M510.7,9.3h0.9l0.2,0.2l-0.1,0.3l-0.5,0.2l0.1,0.5l-0.2,0.2L509,10l-0.4-0.6l0.1-0.4l1.1-0.1L510.7,9.3L510.7,9.3z
	 M515.4,4.8l0.1,0.3l-0.2,0.2l-1.4-0.5l-0.8,0.2L513,5.6l0.9,0.8V7l-3.2-1.5L510,5.3l-1.9,0.4l-0.4-0.5l0.1-0.4l0.9-1.1l1-0.3
	l3.4,0.4L515.4,4.8z M495.9,4.2l1.4,0.1l1.1,0.5l2.7,2.2v0.4l-0.5,0.1l-2-0.7L498,6.9l-0.8-1L497,6l-0.3,0.4l0.3,1.1l-0.3,0.6h-1.6
	l-0.8-0.3l-0.9,0.6L494,9l-0.1,0.6l-0.8,0.5l-1.4-0.4L491,9.1L490.7,7l-1.9-1.3l-0.6-1L488,2.8l0.9-2.5l0.6,0.1l0.7,2.3L495.9,4.2
	L495.9,4.2z"/>
<path class="st0" d="M406.6,699.9l32.8-7.4c12.8-2.9,22.5-13.4,24.5-26.3l0,0"/>
<path id="MST" class="st2" d="M396.8,469.6l0.9-0.9l-0.9-3.1l0.1-0.6l3.3-0.4l1,0.2l3,3.8l0.5,2.9h0.7l1.1,0.6l0.7,0.6v0.5l0.6,0.7
	l1.8-0.1l0.4-0.2l0.2-0.5h0.6l0.3,1.4l6,0.1l1.8,1.3l3.4,1.5l0.9,0.9l0.5,1.2l0.3,0.2l0.4-0.3l0.8,0.6l0.1,0.4l-0.3,0.7l-1.3-0.1
	l-0.4,0.1l-0.8,0.5l-0.2,0.7l0.3,1.7l0.6,0.7l0.1,0.8l0,0.9l-0.8,0.9l0.4,1.5l-0.1,1l0.4,0.9l1.3,0.8l2.2,0.6l3.7,1.5l0.2,0.5l1-0.3
	l0.4,0.3v0.4h1.4l3.3,0.8v1.6l-0.5,0.8l-0.4,0.2l-0.9,3.7l-0.3,0l-0.9,2.8l-0.6-0.3v1.9l-0.4,2.2l2.5,1.7l2.3,2l1,1.9l1.7,1.9
	l2.6,2.3l1,1.2l1.5,3.8l1.3,2.5l1.6,1.1l1.8,1.6l2.3,4v5.3l0.8,1.8l0.8,3.2l-0.7,5.4v1l-0.6,0.1l-0.2,0.3l-0.1,4.6l-1.2,7l3.1-0.2
	v0.5l-1.9,3l1.9,6.5l-5.6,5.2l-0.1,0.3l0.5,1.1l-3.8,0.8v0.9l-0.9,1l-0.5,1.1l-0.1,1.2l-0.7,1.2l-0.1,1l-1.7,2.7l-2.2,2.8l-0.9,2.1
	l-0.1,0.8l-6,6.6l-2.1,1.3l2.2,4.8l-0.2,0.4l-1.8-0.1l-0.8,0.4l0,0.4l0.5,2.7l0.5,6.5l1.4,2.6l1,0.3l1.7,0.1l0.5-0.5l0.6-0.1l1-0.7
	l1.5-1.6l6.8-3.3l1,0.6l1.6,1.5l-6.5,3l-0.2,0.3l5.5,3.4l0.1,0.4l-1.9,1.3l-0.1,1h-0.6l-0.4,0.3l-1.3-0.1l-2.6,1l-0.5-0.3l-0.7,0.4
	l-0.5,0.7l-2.2,1.1l-2.4,0.4L432,629l-0.4,0.2l0.1,0.8l-0.4,0.1l-0.5-0.5l-0.2,1l-0.5,0.2l-0.5,0.6l-1.8,0.6l-0.6,0.5l-0.2,1.3
	l-2,2.3l-1.8,1.4l-1.8,0.5l-0.7-0.4l-0.2,0.6l-0.7,0.1l-0.6,1l-1.9,1.4l-1,1.9l-1.5,0.5l0.3,0.8l-0.8,1.3l-0.9,0.8l0.1,0.7l-0.4,0.7
	l0.2,0.5l-0.3,0.5v1.7l-1,0.7l-0.8,0.2l0.3,1.4l-0.6,0.2l-0.5-0.5h-1.3l-1.2,0.4l-0.2-1.4l-1.5-2.2l-1-3.4l-0.8-1l-3.5,3.2l-4.2,0.6
	l0.3,1.6l1.9,2.3l-0.3,1.3l-0.5,0l-0.1,0.5l1,2.6l0.9,1.2l1.7,0.8v1.5l1.5,0.7l-0.4,1.8l0.2,1.8l-1.6,1.8l0.7,1.5l1.1,0.1l2.5-1
	l2-1.6l3.1-0.7h0.2l0.3,0.7l1.2,0.8l0.4,0.7l1-0.2l0.4-0.4l1-0.4l6.9-0.2l0.2,0.5l-1.8,4.6l-0.4,0.6l-1.2,1l1.8,1.1l-0.1,1.1
	l0.5,3.5l3.6,1l0.6,0.5l0.9-0.3l0.7,0.7l-0.2,1.2l2.1,0.2l0.7-0.5h0.5l1.4,0.5l0.9,1l0.4-0.8l0.5-0.3l-0.2,1l-1,0.7l-0.2,0.8
	l-0.6,0.6l-1.1,4.1l0.3,1.4l1.2,1.7l0.8,1.8l-0.4,0.6l-0.3,1.3l-0.4,0.2l-0.1,0.5l-0.7,0.8l-0.5,3.4l-0.8-0.1l-1.8-1.2l-0.3-1
	l-4.4,2.2l-1.1,0.4l-0.4-0.1l-0.1,3.5l0.5,0.8l0.4,0.2v0.5l0.6,1.5l-0.5,0.5H422l0.3,0.8l-1.5,1.4l-0.9,1.4l-0.4,0.2l-0.8,0.2
	l-0.6-0.5l-1.1-0.5l-0.6-0.7l-0.6-0.1l-0.8,0.6l-0.8,1.2l-0.1,1.5l2,0.6l1.2,0.9l0.6,1.5l4.4,2.7v0.4l-1.1,2.1l-0.5,0.5l0.7,1.6
	h-0.7l-2.4,0.5l-3.2-0.1l-0.6-0.2l-0.1-1l-0.7-0.8l-1.7-0.4l-4.6,1.5l-1.3,1.1l-1.2,0.4l-0.1-1l-0.4-0.1l-1.4,0.2l-0.7,0.8l-1.9-1.4
	v-1.4l-0.6-1.7l-3.8,1.9l-1.7,1.7l-0.3-0.1l-0.7-2.4l-2.1,1.3H390l-1,0.5l-1.1,0.2l-2.6-3.6l-1.2,0.7l-0.2-0.1l-1.3-3.5l-1.6,0.3
	l-3.2,3.7l-0.9,1.6h-1.8l-1.3-0.9l-0.8,1l-1.8,0.3l-0.9,0.8l-1-0.2l-0.5-0.5H368l0.1-1l2-2.8l0.8-2.4l-0.1-0.7l-1.4-2.8v-0.5l1-1.5
	v-0.5l-0.9-1.4l-2.1-0.2l-0.3-1h-0.9l-0.4-0.4l-0.9,0.1l-1.3-0.6l-0.2-0.3l0.2-0.3l-0.1-0.5l-0.6-0.7l-0.4,0.2l0.3-1.3l-1.1-1.4
	l0.3-0.4l-0.5-0.3v-0.8l-0.4-0.5l0.1-0.8l0.3-0.3l-0.3-0.9l0.4-0.7l-0.2-1.2l0.1-0.3l-0.3-0.4l1.1-1l-0.6-0.8l0.4-0.5l0.8-0.1
	l2.8-1.8h1.3l0.6-1.7l1.4-1.3l0.5-0.8l0.4-2.9l0.5-0.7l1.2-0.3l1.6,1l0.8-0.4l0.5-0.9V681l0.5-1.4l1.9-2.4l0.9-2.8l1.7-0.9v-1
	l-0.4-0.9l-0.5-0.5l-1.1-0.2l-1.3,1.1l-1.2,0.3l-1.1-0.6l-0.1-1.3l2.1-2.5l0.5-1.4l1.7-1l1.5-2.5l0.9-0.8l0.4-0.7l0.2-0.6l-0.1-2.4
	l1.5-2.7l0.1-0.6l-0.6-1.1l-2-0.8l-0.2-0.7l1.1-1.7l1.1-2.6l0.1-2.5l0.2-0.4h0.9l1.9,1l1-0.2l0.4-0.5V645l-0.6-2.2l0.4-0.7l0.8-0.7
	l0.1-0.5l-0.4-1l-1-1.3l-0.1-0.8l0.9-0.9l1.2-0.3l2.3,0.9l1.1-0.9l0.2-0.4l0.2-1.4l-0.6-1l-0.6-0.3h-1.7l-0.8-0.5l-0.2-1l0.3-0.9
	l2.3-2.8l0.6-0.3l2.1-0.3l0.7-2.3l1.5-1.1l-3-2.3l0.2-0.9l-0.7-0.6l-0.1-0.8l-0.7-0.5l-0.6-0.9l-1.3,1.3l-0.3,1h-0.4l-0.9-0.8h-0.3
	l-0.6,0.9l-0.7,0.4l-0.7,0l-1.4,1.1l-0.9,0.2l-0.4-0.9l0.2-0.5l0.5-0.5v-0.8l-0.5-0.1l0-0.6l-0.7,0.2l-0.2-0.8v-0.4l1-0.3l0.1-0.3
	l-0.8-0.2l0.4-1.4l-1.5-1.6l-2-0.4l-1.4-0.8l-0.6,0.5l-0.1,0.4l-0.6-0.3l-0.7,0.4l-0.7-0.3l-0.2,0.3h-1.3l-1.2,1l-1.3-0.5l-0.3-0.3
	l-0.6-0.1l-0.1,0.3h-0.4l-0.5-0.5l-2,0.6l-0.3-0.5l-0.6-0.3l-1.3-0.1l-0.9,0.2l-1-1.6l0-0.4l0.4-0.3l-0.4-0.9l-1.9-1l-12-4.9l0,0
	l4.6-1.4v0.5l4-2l0.7-4.3l0.2-6.2l7-10l32.1-10l9.3-8l-9.6-16.3l-1.9-10.6l-1.2-3.1l-2.3-16l8.4,1.7l2.7,2.1l5.2-0.5l4.9-1.6
	l5.5-2.3l1.9,1.5l2,2.4l0.9-0.9l0.3,0l0.5,0.4l0.5-0.4l0.4,0l0.1-0.3l-0.7-0.8l-0.5-1.1v-4.3l-1.7-2.4l-0.5-1.2l-0.2-1.7l0.1-2.4
	l-0.5-1.7l-4-3.9l-3.5-2.1l-0.5-0.5l-0.3-1.3l1.2-2.4V493l-1-0.5h-1.7l-0.6-0.6l-0.1-0.9l1.3-1.9l-1.1-4.4l-0.3-3.1l-0.6-0.6l-2.3-1
	l-4.4-0.6l-1-0.2l-1.7-0.8l-1.1-1.4l-0.3-2.6l-0.7-3L396.8,469.6z"/>
<path class="st0" d="M296.2,552.9l-32.2,9.7c-12.6,3.8-21.5,14.9-22.5,28v0"/>
<path id="EIN" class="st2" d="M260.2,453.4l0.9,0.7l0.9,2.1l1.2,1.1l4.2,1.9l0.4,0.4v0.7l0.8,0.5l0.7,1.5l1.4,1.5l0.6,0.2l1.1-0.1
	l1.5-1.6l0.9-0.4l1,0.1l0.8,0.4l1.6,1.7l3.6,1.8l0.1,0.7l-0.5,1.4l-0.1,1l0.3,0.7l0.7,0.6l-0.7,1l-1.8,1.5l0.1,1.9l5.6-1.4l2.1-0.1
	l3.1,0.8l3.7-0.8l0.9,0.1l1.1,0.5l1.6,1.5l1.2,0.4l1-0.3l1.2-1l1.1-0.4l1.8,0.1l2.1,0.8l0.7,0l3.2-2.2l5-2.3l0.8-0.6l0.6-1.1
	l0.1-3.3l1-3.3l2.8-4.7l1.9-2.4l0.8-1.4l0.5-0.4h1.3l0.5,0.3l1.5,2.1l1.6,0.7l2.2,0.2l1-0.1l2-0.5l0.9-0.6l0.7-1l0.2-1.5l0.6-1.1
	l1.5-0.7h0.6l1,0.5l2.4,2.4l3.3,0.8l1-0.3l1.2-1.9l0.7-0.6l2.8-0.2l1.9-0.4l2,0.5l2.7,1.7l0.9,0.4h2l0.8,0.2l1,1.1l0.9,2.8l1.1,1.6
	l1.7,1.1l3,0.5l1.2,1.1l1.1,1.9l0.8,0.7l3,0.5l0.7,0.4l1.2,1.2l0.4,0.7l-0.2,0.1l0.8,1.3l0.9,0.8l1.3,0.6l1.1,0.2h2.3l3.8-1l7.1-0.8
	l2.4,0.4l0,0l2,1.9l0.7,3l0.3,2.6l1.1,1.4l1.7,0.8l1,0.2l4.4,0.6l2.3,1l0.6,0.6l0.3,3.1l1.1,4.4l-1.3,1.9l0.1,0.9l0.6,0.6h1.7l1,0.5
	v1.2l-1.2,2.4l0.3,1.3l0.5,0.5l3.5,2.1l4,3.9l0.5,1.7l-0.1,2.4l0.2,1.7l0.5,1.2l1.7,2.4v4.3l0.5,1.1l0.7,0.8l-0.1,0.3l-0.4,0
	l-0.5,0.4l-0.5-0.4l-0.3,0l-0.9,0.9l-2-2.4l-1.9-1.5l-5.5,2.3l-4.9,1.6l-5.2,0.5l-2.7-2.1l-8.4-1.7l2.3,16l1.2,3.1l1.9,10.6
	l9.6,16.3l-9.2,8l-32.1,10l-7,10l-0.2,6.2l-0.7,4.3l-4,2V604l-4.6,1.4l0,0l-0.6-0.5l-0.7-4.9l0.2-2l-0.2-1l0.2-0.3l-0.1-0.7l0.2-0.7
	l-0.2-1.2l-1.9-1.3l-2.8-3l-1.2-1.6l-0.6-1.5l-4-1.1l-1-0.1l-0.1,0.3l-0.7,0.7l-0.4,1.3l-1.6,1.5L330,590l-0.5,1.5l-0.9,0.1L326,595
	l-5.5-1.3l-5.8-1.7l-0.2,0.2v0.7l-0.6,1.5l-0.8,0.7l-3.5,0l-3.2,0.4l-4.8-1.2l-3.8,1.3l-0.6-0.3l-1.5-1.2l2.4-8.9l-0.2-0.6l-6.2-4
	l-4.1,1.4l-1.8,1.4l-4.5-1.4l-0.4-8.3l-1.2-1l-0.7-0.9l-0.5-1.4l-0.6-0.9l-6.5-7.3l3.4-6.8l1.8-3.1l-4.1-9.8l-4.5-0.1l-0.8-0.2
	l-1.1-1.9l0.1-1.7l-0.7-0.3l-0.5,0.1l-1.8,1.5l-0.8,1.4l-1,0.9l-0.6,1.6l0.4,2.9l-0.8,1.2l0.1,1.2l-6.2,5.3l-1,1l-4.6,6l-0.1-0.9
	h-0.5l-0.1,0.5l0.4,0.5l-1,0.5l-1.1-0.3l1.6-0.4l-0.4-0.5l-0.6,0.2l-0.2-0.5l-1-0.7l-0.2-1.1l-1-1l-0.3-0.8h-0.5l-0.4,0.6l-0.4-0.7
	l-0.9-0.2l0.2-0.6l-0.5,0.1l-0.1,0.3l-1.4-0.3l-0.1,0.3l-1.1,1v0.6h-0.2l-1.1-0.4v-0.7l-0.9-0.1l-0.5-0.3l-0.8,0.7l-1.2-0.5
	l-7.4,1.5l-1.7-0.7l-1.1-0.8l-0.4-1.1v-1.1l-0.3-1.2l0.4-0.8l0.5-0.2l1.7-0.2l0.4,0.8l0.8,0.3l1.6,0.2l1.9,0.7l0.9,0.6l1.1,0.2
	l1.2,0.6v0.5h1.3v-0.3l-0.5-0.3l1-0.9l-0.1-0.1l-1.1,0.4l-1.4-0.1l-0.1-0.2l-0.7-2.9l0.1-1.1l-0.4-2v-0.4l0.7-0.5l0.8-1.2l0.1-0.8
	l0.3,0.5l0.6,0.2l0.9-0.8l-1.6-1.2l0.6-2.2l0.3-2.3l-0.6-0.3l-2.6-0.4l-0.3-0.7l-0.2-1.7l-0.4-0.6l-2.9-1.2l-1.2,0.1l-0.9-0.2
	l-0.6-0.9l-1.3-0.2l-1.9,0.4l-0.4,0.6l-0.9,0.1l-0.6,0.8v0.7l-0.6,1.1l-2.5,1.3l-1.3,2.5l-0.9,0.6l-0.1,0.7l-1.9,0.5l-0.7,2.1
	l-1,1.8l-1.4,0.3l-2.7,1.5l0.4,4.4l-1.6,0.5l-1.2-0.4l-1.9,1l-1.7-0.9l-8.4-1.6l-6.3,2.3l-0.9-6.6l2.7-6l-1.7-2.5l-7.9,1.2l-1.3-0.2
	l-0.9,0.2l-1.6,1.7l-3.4,0.6l-8.7,4.8l-0.6,0.1l-0.7,0.9l0.9,0.3h1.4l0.7,1.1l-0.2,1.1l0.5,0.4l-0.3,0.6h-0.6l0.4,1.2h-0.6l-0.2,0.6
	l-1,1.1l1.4,3.3l6.2,8.2l-0.9,1l0.8,1.7l-1.4-0.3l-4.4,2.2l-1.8,0.3l-0.9-0.1l-2.6-0.7l-2.9-0.1l-0.9-4.2l-0.4-0.6l-9.2,0.3l0,0
	l-0.5-1.6l-1-0.1l-0.5-1.1l0.3-0.3l-0.1-1.5l0.4-0.5l-0.1-1.3l-0.8-3.6l0.6-1.2l1.3-1.2l-0.8-1.3l-6-14.2l-2.1-4.2v-2l1-3.1
	l-0.1-0.3l1.8-4.7l0.2-1.1l-0.1-1.5l-0.2-0.7l-1.2-2.1l-5.2-6.4l-0.6-1.6l-0.1-1l0.2-2.3l1.1-2.5l1.8-1.8l4.4-1.9l1.7-3.1l0,0
	l4.3,0.5l3.8-0.9l2.2-1l3.1-0.7l3.3-1.5l1.4-0.8l1.4-1.5l1.1-1.8l0.4-1.6l2-2l0.5-1h0.9l0.4-1.1l1-0.7l2.2-2l11.9,4l3.5,0.4
	l11.9-3.3l2.5-2l10-2.9l4.8-3.4l3.5-3.1l2-2.2l0.7-1.1l1.5-4.6l2.4-2.9l2.4-1.3l2.2-0.7l2.1-0.1l4,0.6l1.7-0.4l0.9-0.4l2.4-1.8
	l2.9-3l3.7-1.9l1.8-0.4h2.6l4.6,1L260.2,453.4L260.2,453.4z M248.3,547.5v0.5h0.8l-0.3,0.2l0.2,0.3l0.6,0l-0.7,1l-0.4,0.1l0.1,0.7
	l-0.3,0.2l-0.3-0.9l0.2-0.3l-0.1-0.5l-0.5,0.4l-0.1-0.3l0.3-0.3l-0.1-0.4l-0.9,0.5l0.6,0.7L247,550l0.2,0.3l-0.1,0.7h-0.3l-0.6,0.5
	l1.8,0.4l0.4,1l0.9-0.2l0.4,0.5l0.6-0.8v-0.7h-0.4l0.4-0.5l0.3,0.2l0.4-0.3l-0.3-0.1l0.1-0.3l-0.6-0.1v0.3h-0.3l-0.1-0.3l-0.2,0.2
	l-0.2-0.8l1,0.1l-0.1-0.7l-0.3-0.2l-0.3,0.2l0.1-0.5l0.3-0.2l0.3,0.2l0.6-0.7l0.4-0.1l0.2,0.5l0.1-0.3l0.7-0.2l-0.1-0.4l0.3-0.2
	l-0.4-0.6l-0.2,0.5l-0.6,0.3l-2,0.3L248.3,547.5L248.3,547.5z M251,549l0.1,0.3l1.1-0.1l-0.7-0.6l-0.1,0.3L251,549z M243.1,554.4
	l0.1-0.2l-0.2-0.2l-0.4,0.5L243.1,554.4L243.1,554.4z M238.9,557v-0.3l-0.3,0v0.3L238.9,557z M249.9,559l-0.2-1.3L249,558l-0.8,0.1
	l0.6,0.6l-0.7,0.6L249.9,559L249.9,559z"/>
<path class="st0" d="M200.1,293.5l-33-6.8c-12.9-2.7-22.8-13-24.9-25.9v0"/>
<path id="AMS" class="st2" d="M276.9,319l-1-0.7l-0.1-0.3l1,0.5l0.3,0.4L276.9,319L276.9,319z M264.6,317.4l-0.2-0.1l0.2-0.4h0.6
	L264.6,317.4z M270.8,313.7h-0.2v-0.3h0.3L270.8,313.7z M262.1,311.8l-0.2,0v-0.3l0.4-0.1L262.1,311.8z M269.8,243.6l-0.2-0.1
	l0.1-0.5L269.8,243.6z M307.6,228.5l8.6,3.8l7.1,7.5l0,0l-0.4,0.3l0,0l-7-7.4l-8.2-3.6l-2.1,0.2l-0.7-0.2l0.3-0.4L307.6,228.5
	L307.6,228.5z M213.3,155.9l-0.6,0.3l-2.8-0.2l-1.5,0.1l-3.3,0.8l-1.7,0.9v0.4l0.8,0.4l-0.6,0.6l-1.4-0.1l-0.7-0.6l-0.2-0.8l0.2-0.9
	l0.7-0.8l1.6-0.9l1.5-1.3l1.1-0.3h1.1l2.2,0.5l3.4,1.2L213.3,155.9L213.3,155.9z M268.7,164.4l-0.2,0.6l-0.4-0.1l-1.6,1.3l-0.3,0.6
	l-0.1,1.8l1.5-0.3l4.1,7.8l0.4,0.2l0.6,1.9l5.3,10.4l-1.5,18.3l1.2,0.1l0.7,1.2l0.9,3.6l2.3,2.1l0.5,0.8l1.5,1.5l1.2,0.4h1.8
	l1.4-0.9l0.6-0.5l2-3.2h2.1l2.4,0.3l0.7,0.4l1,0.2l0.5,0.6l1.1,0.6h0.9l0.4-0.3l0.4,0.2l1.9-0.6l0.4,0.5l-1.5,0.3v0.2l2.1-0.1
	l1.1,0.9l0.8,0.3l0.6,2.2l-0.5,0.6l0.4,0.7l-0.3,0.7l0.2,1.5l0.4,0.3l-0.1,1.1l2,1.6l1,0.1l0.1,0.3l-0.2,0.3l-1-0.4l-0.4,0.3l0.1,1
	l-0.8,0.5l-0.4,0.6H305l-0.1,0.2l0.3,0.3l-0.8,0.2l0,0.3l0.8,0.6l-0.2,0.4l-0.3-0.2h-0.4l-1.2,1l-2.1,0.3l-0.3,0.2l-0.6,0l-1.1,0.3
	l-0.4,1.1l-0.1,2.1l-1.1,4.1l-0.8,1.2l-3.7,2.1l-1,1l-0.5,1.2H290l-1.5,0.3l-1.1,0.6l-2.4,2.5l-2.3,0.2l-2.7,0.6l-0.5-0.8l0.3-1.1
	l-1-1.4l-2.1,0.2l-1.8-1.6l-0.8-1.2l-2.2,0.6l-1.2,1.2l-0.4-0.3l0.2-0.3l-0.5,0.3l-0.9-0.1l-0.1,0.6l0.2,0.3l-0.5-0.2l0.1-0.9
	l-0.7-0.9h-0.9L266,243l-1.1,0.2l-0.6,0.6l-1.1,0.5l-0.4,1l-0.1,1.6l0.6,3.2l-0.1,0.8l0.3,0.4l-0.1,0.6l0.3,0.7l-0.4,1l0.4,1.3
	l0.8,1.3l-0.1,0.5l0.8,2.3l-0.3,1.7l1.9,1.8l0.2,1.1l1.7,3.1l-0.1,1.5l0.7,0.8l1,2l0.1,1.2l0.7,1.2h0.7l-0.2,1l1.1,0.9l0.7,2.2
	l-1.6,2.7l-0.5,0.3l-0.3,0.5l-0.5,0.2l-0.6-0.2l-0.5,0.6l-0.1,1.4l0.2,1.3l1.2,1.4l0.1,0.4l-0.2,0.7l-1.6,0.2l-1.1-0.3l-1.9,1
	l-0.7-0.4l0.5,1.3l0.6,0.2l-0.1,0.3l0.3,0.2l0.8-1.1h0.7l0.4,0.3l-0.8,1.7l-0.1,1.6l0.4,1l-0.3,1.1l0.3,0.3h1l0.7,0.3l1-0.2l1.8,0.5
	l1.4-0.1l0.3-0.3l0.3-3.3l0.4-0.8l0.6-0.7l0.4-0.1l0.1-0.3l-0.2-1.4l0.2-0.6l-1.5-5.5l0.2-0.3h0.3l1.5,5.2l1.2,1.1l0.1,0.5l1.9,0
	l1.1-0.2l0.7,0.1l0.1,0.3l-1.6,0.6l-0.8,0.8l-1.4,0.2l-1.1,1.1h-1.2l-0.5,3.2l-1,1.8l-0.3,0.3h-0.4l-0.1-0.3l0.2-0.4l-0.2-0.1
	l-0.5,0.7l-0.7,0.4l-0.4,1l-0.2,1.5l-0.6,0.7l-0.3,1.1l-1.5-0.3l-0.5,0.2l-0.4,0.2l-0.9,1.5l-1.4,0.5l-0.8,0.9l-1.2,3.4l-0.7,0.3
	l-0.4,0.6h-0.8l-0.2,0.3l0.4,0.7l-0.3,0.7l0.1,0.4l-0.4,0.8l-0.4,0.1l-1-0.6l-0.5-0.8l-1.1,0.2l-1.7,1l-1.4-1.5l-0.4,0.1l-0.9-0.9
	l-0.7,0.8l0.5,1.2l1.1,0.2l1.4,1.2l-0.2,0.3l-0.7,0.1l0.1,0.5l-0.5,0.5v-0.9l-0.5-0.2h-0.5l-0.4,0.7l0.7,0.7l1.1,0.3l0.6,0.9l1,0.3
	l0.3,0.8l0.9,0.5l0.5,0.8l0.8,0.8l0.9,0.4l1.5,0.1l0.9-0.9l1.3-0.2l1.1,1.1l-0.1,0.9l-0.8,0.4v0.5l0.4,0.4l0.7-0.1l-0.3-0.6l0.1-0.1
	l1.4,0.5l2.4-0.5l1.6,0.3l1.3-0.9l2.3,0.3l1.6,1l1.4,1.2l1.7,0.3l1.2,0.6l0.7-0.1l0.5,0.4l0,0l1.2,1.5l1.1,0.6l11-1.9l9.7,2.5
	l4.6,3.1l3.8,3.8l0,0l-4.7,3.4l-4.6-0.8l-1.5,1.4l-0.9-0.4l-2.5,5.2l-3.5,3.1l-0.1,5.9l-0.4,2.1l-1.3,2.9l-3.1,5.8h-2.8l-8-0.6
	l-0.3-1.1l1.8-0.9l1.1-1l0.8-1.5l-2-4l-1.9-1.1l-0.5,1l-6.8,0.2l-2-0.6l-3.2-1.6v-1.5L266,348l3.3-1.5l-2.3-2.2l0-0.9l-0.6-2
	l-0.8,0.8l-0.5-0.2l-0.3-0.5v-1.1l-0.5-0.6v-1l-0.7-1.5h1.1l0.5-0.7l1.2-0.5h1.2l0.2-1.1l1.3-0.7l0.5-0.1l0.2,0.2v0.6l0.5,0.3
	l-0.2-1.2l-0.5-0.8l-0.6,0l-0.8,0.5l-0.4-0.4l-1.2,1.5l-1.5-1.3l-0.7,0.2L264,335l-0.5-0.4l-0.4,1.1l-0.6,0.1l-0.2,0.7h-0.7
	l-1.4-3.2l-1-0.4l-1.6,0l-0.8,0.2l-1.3,0.9l-0.9,1.5l-0.5,0.3l-2.6-0.4l-0.6,0.2l-1.3-0.7l-1.2,0.5l0.2,2.2l-0.8,0.3l-0.5,0.5
	l-0.2,0.8l-0.8,0.2l-0.5,0.9v0.8l-0.7,0.6l-4.2-0.2l-0.5,0.2l-2,0.1l-0.6,0.3l-1.2,1l-0.4,0.4l-0.8,1.6l-2.5,2l-3,1.4l-0.8-0.1
	l-1.7,0.1l0,0l-1.6-0.4l-1.6,0.7l-0.9,1.3l-1.4,1.1l-1.5,0.3l-1.9,1.2l-1.2,1.5l-0.9-0.7l0.2-0.5l-0.1-0.9l-0.6-1.3l0.2-2.9
	l-3.1-0.5l-1.5,0.6l-1.2,1.2l-0.2-0.1l-0.4,0.3l-3,0.2l-5.1,3l-3.2,0.2l-2.3-0.3l-2.4-0.9l-1.7,0.6l-2.3-0.5l-1.1-0.9l-0.2-1.3
	l0.1-0.5l1.3-1.6l1.3-6.5l-0.3-2l3.1-3.2l1.5-3.2v-0.6l1-2.7l1.3-1.9l-3.8-1.7h-0.4l-2.1,0.6l-1,1.9l-10.7-4.9l0,0l8.8-22.3l1.8-5.2
	l0.6-2.7l0.2-3.3l0.8-1.1l-0.6-1.7l1.3-2.7l1.8-5.1l1.9-9.4l2.1-13.1l1-10l1.2-8.1l0.1-1.9l0.9-5.9l1.5-13.3l1.4-6.7l0.9-2.4
	l1.4-2.6l2.7-9.1l3.7-14.7l0.8-3.8l0.7-14.1l0.5-2.3l1.1-2.2l0.9-1.1l0.6-0.2l2.3-0.4l0.9,0.3l1.2-0.6l2.6,0.1l-0.1,0.6l0.6-0.3
	l0.4,0.3l-0.1,0.3l-0.4-0.2l-0.3,0.6l0.2,0.7l0.4,0.4h0.3l0.1,0.6h0.2l1.2-0.3l-0.1-0.8l0.7-0.5l-0.2-0.4l-0.5,0.3l-0.3-0.8l1.5-0.3
	l0.5,1l-0.1,1l-1.5,3.3l-0.4,2.2l0.3,0.2l0.1,0.6h0.4l0.1,0.8l1.8,4l0.4,0.6l10.3,6.1l5.1-1.4l1.8-1.2l3.2-1.3l-0.2-0.5h0.6l2-2.5
	l0.4-0.9l0.3-1.4l1.5-1.3l2-0.5h1l2.4-1.1l1.8,0.5l1.3-0.3l1.1-0.6l0.4,0.4l0.3-0.1l0.6,0.6l1.8-1.3l-0.2-0.3l0.2-0.3l18.1-15.7l0,0
	l0.6,0.9l0,0l-17.7,15.5L268.7,164.4z M241.1,107.2l0.7-0.2l0.6,0.5l1.2,1.7l1.8,3.5l-0.1,0.9h-0.4l-0.2,0.7l-0.3-0.9l-0.4,8.2
	l0.3,2.4v1.8l-0.6,1.9l-0.7,0.3l-1.9,1.6l-0.2,0.9l-1,0.6l-0.1,2.7l-1.3,1.7l-0.4,1.3l-0.6,0.5l-0.2-0.4l-0.9,0.7l0.1,0.5l-0.7,1
	l-0.7,0.4l-1.2,0.5l-2.2,0.1l-0.4,0.3l-4.3,5.5v0.5l0.7,0.4l-0.5,0.7h-1.3l-0.5-0.6l-0.4,0.3l-1.1-0.7h-0.8l-2.3-1.1l-0.4,0.3
	l0.4,0.2l0.2,0.8l1.8,0.7l0.2,0.6l1,0.7l0.2,0.3h-0.5l-1.1-0.5l0.1,0.2l-1.9,0.8v0.3l0.5,0.1v0.2l-1.6,0.5l-1.3-0.2l-1,0.6l0.4,0.1
	l-0.4,0.5l-0.6-0.1l-1.3-1.2l-1.4-2.7l-0.6-2.9l0.3-4.9l1-5.2l0.8-2.7l1.5-3.7l3-5.7l4.7-7.5l1.7-2.3l5.1-8.4l2.1-2.6l1.9-1.7
	l1.5-0.6h0.4l0.6,0.4l1,1.7l0.7,0.4l0.8,1.8l-0.1,1.5l0.2,1L241.1,107.2z"/>
<path id="NL-OV" class="st1" d="M437.1,186.4l1.2,1.6l0.4,1l0.8,1l5.6,6.5l1.1,0.6l3,4.1l1,1l-5.2,5.7l-0.2,1.3l-3.1,1.5l-3.6,0.9
	l-0.3,0.2l-0.7,1.3l3.2,8.2l1.8,3.9l0.8,2.8l1,1.3l0.5,0.3l0.2-0.1l0.5,0.5l0.8,1.6l1.2-0.5l0.4,0.4l2,0.2l0.9-1.2h0.9l1.3-0.5
	l0.2,0.7l1.4,0.8l0.5-0.2l0.2,0.4l1.2,0.6l0,0l0.9-0.1l0,0l0.8,1.4l0.9,0.7l1.1,0.1l0.5,0.7l0.8,0.5l0.4-0.1l0.7-0.9l0.6,0.1l1,1.3
	l0.5,0.3l0.5-0.1l0.6-0.8l1.2-0.1l2-0.9l1-0.1l0.5,0.9l-0.4,0.5l0,1.2l1.2,1.1l1.2,0.4l0.4,0.5l1.4,0.9l0.1,0.5l0.3,0.3h0.5l0.7,0.5
	l-0.2,0.3l1,1.3l0.3,1.3l0.7,1l-0.1,1.1l0.5,0.8l0.1,0.8l0.6,0.8h0.4l0.1,0.7l0.2,0.1l1.4-0.8l0.4-0.7l1.5,0.1l0.5-0.9l1.4,0.7
	l0.5-0.4l0.1-0.6l1-0.7l0.4-0.8l0.2,0.6l0.4,0.4l0,1l0.5,0.7l1,0.6l0.9,0.1l1.7-0.5l0.5-0.5l0.6-1.9l0.7,0.4v0.6l0.7,0.3l0.2,0.4
	l1.2,0.1l0.3-0.3l1,0.1l1,0.4h1l0.4,0.8h0.7l0.3,0.6h0.4l0.1,0.6h0.4l0.2-0.4l-0.4-4.4l-0.5-1.5l-0.4-3l0.1-0.5l4.7-3.9l1.3-0.7
	l10.1-2.3l9.6,4.6l5.4,1.9l-0.8,1.8l0.3,0.1l0.2,0.5l-1,1.1l0.3,0.5l-0.6,1.6l1.8,0.1l0,0l0.3,0.1l0.7,1.1l0.4,0.2l0.8,1.6l-0.4,3
	l-0.5,1.9l-0.1,2.1l7.5,6.6l-2.2,0.8l-0.9,0l-1.1-0.4h-0.9l-1.5-0.4l-0.8,2.7l-0.8,0.6l-0.1,0.4l-5.7-1l3.9,8.2l-1.1,8.9l2.5,2
	l1,0.6l1,0.2l4.2,3.2l1.3,0.5l2.6,0.8l9.3-0.3l1.8,0.4l1-0.1v2.4l1.6-0.3l7,2l5.4,2l1.1-0.4l2.2-2.2l0.6-0.9l1.7-4l1.8-1.2l0.8,1
	l0.1,0.7l1.3,3.1l1.3,5.4l1.8,1.6l2.3,5.2v0.5l0.9,0l1.6,0.6l0.7-0.4l0.5,0.2v0.8l0.8,1.3l1.5,4.7l-0.1,5.5l-2.7,3.7l-0.3,1.8
	l-1.3,1.6l0.1,1.3l-0.4,1.3l-1.2,2.3l-0.5,0.5l-1.3,2.8l-0.1,0.8v1.2l0.3,1.1v0.6l-0.2,0.1l0.1,1.2l0.9,1l1.6,3.7l3.2,3.5l-0.7,1.6
	l-3.4,2.2l-2.6,0.2l-0.5,0.4l-0.4-0.4l-2-0.5l-1.4,0.3L575,349l-1.1,0.5l-0.1,0.6l-0.8,0.6l0.1,1.7l-0.7,1.9l-0.9,1.1l-1.4,3
	l-1.6,2.5l-0.3,0.2l-2.7,0.5l-3.8,0.6l-0.3,0.5l-0.1,1.2l-3.5,3.3l-1.5,6.7l-2.7,2.6l-5.7,0.6h-9.3l-7.1,0l-2.7-1.3l-3.5-0.6
	l-2.3-1.1l1.7-2.7l0.2-1.6l-0.2-0.7v-1.4l-0.4-0.2l0.5-0.8v-0.6l-0.3-0.9l-0.4-0.4l-3.3-1.7H520l-0.8,1.4l-0.8-1.1l-0.8-0.3
	l-0.4,0.3l-0.3,0.8l-0.7,0.2l-1.3,1l-1.3-1.2l-0.1-0.4l0.5-1l-0.7-0.5l-0.3-0.6l-1-0.4V361l-0.5-0.3l-0.1,0.3l-5.7,1.1l-6.3-1
	l-3,1.1l-0.5-0.2l-0.5-0.5l-1.5-0.8l-0.5-0.7l-0.9-2l-0.1-1.4l-0.3-0.3l-1,0l-0.9-0.4l-1.3-2.6l-3.2-3.3l-0.6-1.9l-1.1-1.6l0-1.3
	l-2.6-0.3l-2,0.1l-0.9-0.4l-1.8,0.8l-3,0.2l-0.3,0.7l-0.6,0.1l-1,0.7l-0.1,2.2l-1.4,0.1l-1.3,0.4h-3.3l-0.5-0.4l-0.1-0.4l-0.5-0.1
	l-0.1-0.4l-1.8,0.5l-0.4,0.5l-1-0.4l-0.1,0.8l-1.5-0.4l-2.1,0.2l-0.4-0.3H456l-1.1-0.4l-2.4-0.3l-2.5-1.7l-1.7,0.1l-1-0.3l-0.6,0.3
	l-0.7-0.1l-0.2,0.1l-0.2,0.9l-0.2,1.6l-0.7-0.8l-0.4,0.7l0.3,0.3l-0.1,0.2l-0.6-0.3l0.3,0.9l0.6,0.7v0.5l-0.3,0.3l-0.3-0.3v-0.8
	l-0.4-0.8l-1.4-0.3l-1.1-0.8l-0.4-1.6l0.3-0.9l1.1-0.7l0.3-0.9l-0.1-0.5l-2,0.2l-0.9-0.6l-1.8-0.4v-1l0.9-1.3l-0.9-0.8l-0.5-2
	l-1.5-1.8l-0.1-2.5l-0.8-1.2l-0.5-1.4l-0.3-0.6h-1.6l-1.1-0.3l-0.1-2.8l-0.5-1.2l-1.6-0.2v-0.5l0.6-0.8l0.3-1.8l0.2-2.5l-0.2-2.6
	l0.4-0.7l1.6-0.5l0.9-0.7l-0.2-0.5l-0.5-0.4l-1.2-0.3l-0.4-0.3l-0.3-0.6v-0.9l0.6-0.9l3.1-0.6l2.9-1.1l0.4-0.5l0.3-0.7l0-2.4
	l0.7-1.4l0.9-3.4l-0.1-1l-0.9-2.6l-2.4-3.5l-1.3-0.9l-0.6-0.8l0.2-2.4l-0.2-2.8l-0.4-1.3l-1.4-1.6l-2.4-1l-1.3-1l-0.8-1.2l-1-2.5
	l-3-2.4l-0.6-0.1l-1-0.5l-0.4,0.8l-0.7,0.5l-1.7,0.6l-6.9,7.1l-1.4-2l-0.9,0.2l-2,1.5l-0.6-0.6l-1.2,0.5l-0.5-1.6l-1.6-3.5l-1.1-1.9
	l-2.1-2.6l-2.5-2.2l-2.1,0.8l0,0l-1.3-7.1l-0.5-1.5l-6.7-7.2l-1.5-0.3l-3.7,0.1l0.1-6.9h9.4l0.4-0.7l0.8-0.3l9.3-2.1l1.3,0.5
	l0.8,0.9l2.3-0.3l3.6-2l0.2-0.6l5.2-1.1l3.6-2.4l0.8-1v-0.4l-0.4-0.6l-1.9-1.9l-2.6-0.7l-2.5-2.2l-1.5-0.5l-1.1-0.1l-2.1-0.8v0.4
	l-0.7-0.1l-0.4-0.4l-0.1-0.9l1.8-2l1.5-1l0.9-1.1l0.5-0.1l0.4-0.7v-0.9l-0.7-1.5l-0.5-0.4h-0.3v-0.9l-0.5-0.9l-1.1-0.6l-1.6-5.5
	l-1.1-2.9l-0.6-0.9L403,211h-0.6l-1-0.6l-1.6-1.4l-0.9-1.3l-3.1-2.1l-1.4-0.7l-1.9-0.3l-0.3-0.2h-2.9v-0.5l-2.1-1.9l-1.4-2.5l0,0
	l3.8-2.6l0.2,0.4l1.9,1.1l0.4,1.1h0.4l0.6-0.6l0.9,0.4h1.5l0.6,0.3h0.7l1.5,0.8l0.8,0.1l3.3-1.6l0.6-0.9l1.4-0.9l0.8-1.2l1.4-0.9
	v-1.3l0.2-0.3l-0.2-0.4l0.6-0.3l0.1-0.6l1.6-0.2l0.8-0.3l1.5,0.6l-0.2-1l0.2-0.4l0.7-0.5l2.1-0.5l0.5,2l0.9,1.4l0.7,2l0.6,0.1
	l0.8,0.7l0.7,0.1h0.5l0.5-0.4l1.3-0.4l1.8-0.2l0.7,1.4l1.3-0.6l2.4-1.5l0.3-0.6l-0.5-2.6l1.8-0.7l2,0.2l0.7-0.1l0.6-0.6l0.8-0.4
	l0.9-0.1l1.9-1.2L437.1,186.4z"/>
<path id="NL-UT" class="st1" d="M227.5,348.2l1.7-0.2l0.8,0.2l3-1.4l2.5-2l0.8-1.6l0.4-0.4l1.2-1l0.6-0.3l2-0.1l0.5-0.2l4.2,0.2
	l0.7-0.6v-0.7l0.5-0.9l0.8-0.2l0.2-0.8l0.5-0.5l0.8-0.3l-0.2-2.3l1.2-0.5l1.3,0.7l0.6-0.2l2.6,0.4l0.5-0.3l0.9-1.5l1.3-0.9l0.8-0.2
	h1.6l1,0.4l1.4,3.2h0.7l0.2-0.7l0.6-0.1l0.4-1.1l0.5,0.4l0.5-1.2l0.7-0.2l1.5,1.3l1.2-1.5l0.3,0.4l0.8-0.5l0.6,0l0.6,0.8l0.2,1.2
	l-0.5-0.3v-0.6l-0.2-0.2l-0.5,0.1l-1.3,0.7l-0.2,1.1h-1.2l-1.2,0.5l-0.5,0.7h-1.1l0.7,1.5v1l0.5,0.6l0,1.1l0.3,0.5l0.5,0.2l0.8-0.8
	l0.6,2v0.9l2.2,2.1l-3.3,1.5l0.6,0.7v1.5l3.2,1.6l2,0.6l6.8-0.2l0.5-1l1.9,1.1l2,4l-0.8,1.5l-1.1,1l-1.8,0.9l0.3,1.1l8,0.6h2.8
	l3.1-5.8l1.3-2.9l0.4-2.1l0.1-5.9l3.5-3.1l2.5-5.2l0.9,0.4l1.5-1.4l4.6,0.8l4.7-3.4l0,0l8,8l3.1,2.6l0,0l-1.8,7.8l6.5,5.3l0,1.5
	l-0.4,2l-0.6,0.5l-1.2-0.4l-0.7,0.5l0.5,0.5l0.3,1.5l-0.1,0.9l2.5,0.9l6,0.8l0.1,0.4l1,0.4l-0.1,0.5l0.5,0.1l-0.2,1.7l1.3,0.6l1.6,0
	l-0.3,1.5l0.1,0.4l2.1,1.1l-0.8,1.5l-1.7,0.3l-0.2,1.4l-0.4-0.1l0.7,0.9l0.8,0.3v0.9l0.7,0.4v0.4l-3.3-0.3l1.1,0.7l-0.1,0.5
	l-1.4,1.3l0.2,2.7l-2.3,1.4l-1.7,2.2l0.3,0.3l0.6,0.1l0.1,0.5l2.7,1.6l1.3-0.5h1.9l0.4-1.4l1.4-0.1l1.3,0.3l1.5-1.6l-1-0.4l0.5-0.9
	l1.3,0.4l0.1-0.5l0.1-0.7l-0.9-0.2l0.4-1l-0.4-0.3v-0.4l-0.5-0.2l-0.1-0.7l1.4-0.4l0.4,0.5l0.3-0.1l-0.1-0.5l1.1-0.2l0.3,1.5
	l-0.3,0.7l0.6,0.4l0.1,1.9l0.5,0.6h0.4l0.3,2l-0.5,1.9l0.2,0.4l-0.4,3.8l-0.5,1.5l1.2,0.5l-0.2,1.8l3,1.1l-0.2,4.6h-0.9l1.5,1.7
	l0.4-0.4l0.5,0.5l0.3,0.4l0.1,1.6l0.6,0.7l1.3,1.2l1,0.2l0.7,1.1l0.4,2.1l1.6,1.9l-0.2,1.1l-0.4,0.6v0.7l0.7,1.7v1.5l-0.9,0.2
	l0.1,1.3l-0.9-0.5l-1.6,1.4l-2.7-1.8l-4.1-1l-1.2-0.5l-1.1-0.9l-1.1-1.8l-5.1-1.9l-1-1l-2.2-1.3l-0.9-0.2l-2.8,0.3l-4.3-0.9l-1,0.6
	l-2.2,1.8l-5,1.9l-1.5,0.1l-2.3-0.5l-1.3,0.2l-1.3,0.9l-1.6,2l-1.9,1l-1.4-0.1l-2.5-1.6l-2.6-0.3l-2-0.5l-1.8-1l-1.9-1.9l-1.3-0.7
	l-1.2,0.3l-0.7,0.8l-1.4,2.7l-1.1,1l-0.9,0.2l-2-0.4l-2.2-1.4l0,0l-1-0.7l-2.8-0.5l-1.1-0.7l-0.8-1.7l-0.4-2.6l-0.4-0.8l-2.1-1.2
	l-1.6-0.6l-1.2-0.4l-1.8-0.1l-1.7,0.5l-3,1.5l-0.5,0.8l-2.8,2.2l-1,1.1l-0.4,1.2l-0.8,1.1l-1.6,0.2l-2.4-1.9l-1.2-0.2l-0.6,0.1
	l-1.4,0.9l-2.1,2.9l-0.9,0.6l-1.2-0.1l-2.4-1h-0.9l-1.1,1.1l-1.1,2.5l-1.2,1.5l-3.1,0.8l-1.5,0.1l-1.6,0.6l-1.3-5l-1.1-0.9L238,416
	l-1.2-0.7l-1.9-2.1l-1.6-2.3l0.6-0.3l-1-1.4l-1.2-0.4l-1.5-1.8l6.3-1.6l0.1-0.3l-1.3-2.5l-1,0.5l-2.6-0.1l-1,0.7l-1.8,0.2l-0.4-1.4
	v-0.9l1.4-1l-0.3-1.9l1.1-0.8l2-3.2l2.6-2l3.3-1.2l0.8-1.6h-4.9l-1.6,0.4l0.1-1.4l-0.9-1.1l-0.3-1.3l-0.3-3.9l0.1-2.3l-5.4-3.9
	l0.3-1l1.9-0.9l0.3-2.1l0.9-1.3l1.3-0.5l1.5-0.3l0.9-0.5l0.4,1.5l0.9,0.7l3.1,0.4l1.1-0.2l0.1-0.3l0.7-0.3l-0.6-4l3.3-1.3V366
	l-5.3-3.7l-2.4-0.9l-4.5-5l-0.3-0.8l-1.1,0l-0.3-1.4v-2.5l-1.1-1.9L227.5,348.2z"/>
<path id="NL-ZE" class="st1" d="M123.1,569.8h0.4v-0.4l0.2,0.1l0.7,1.6l-0.3,0.2l-1.6,0.2l-2-0.9l-0.5-0.6l1.2-0.8l1.4,0.2
	L123.1,569.8L123.1,569.8z M29.9,559.8l2.9,0.9l-0.2,0.6l0.2,0.1l0.4-0.2l0.2,0.2h0.9l1.6,1.8l1,0.3h1.7l0.9,0.3l0.3,0.5l1,0.3
	l0.2,0.5l3.9,1.1l7.2,1.1l0.8,0.9l0.1,0.5l0.4,0.2l0.1,0.5l2.5,1.7l1.1,1.8l1.5,0.2l1.2-0.4l3.9,0.8l0.2,0.5l-0.6,0.5l-0.1,0.9
	l1.7,0.9h0.6l0.1-0.3l-0.3-2.7l0.1-0.3l3.1,0.1l0.6,0.7l1.2,0.6l1.5,0.2l-0.5,0.5v0.5l1.2,2.3l0.3-0.2l-0.4-1.4l0.5-0.2l-0.4-1.2
	l0.5,0l-0.1,0.3l0.3,0.8l0.5-0.3l0.3-0.9H74l-0.2,0.3l0.3,0.3l1.2,0.2l1.2,0.8l4-0.1l1.1-1.3l0.3-1l2.4-0.7l0.7-0.9l2.8-2l1.7-0.7
	l2.6-0.6l0.1-0.2l1.2-0.4l0.5,0.1l0.3-0.3l0.8,0.6l0.2-1l-0.2-0.4l0.5-1.1l0.1-1.5l0.9-0.9l-0.4-0.9l-0.2-2.2l1.7-2.3l2.6,0.2
	l0.4,0.5l3.9,0.6l-0.3,0.5l0.4,0.4l0.4-0.2l0.6,1l0.6,0.2l0.7,2.3l-0.3,0.2l0.2,0.6h0.7l1.2,2.6l0.9,1.1l4.5,0.3l2.1,0.3l3.7,3.2
	l2.8,3.3l1.6,0.9l-1.7-2.3l-0.8-1.8l1.7-0.7h1l0.5,0.3l0.5,1h0.9l0.7,0.5l0.8,1.2l-0.1,0.5l0.3,0l0.4-0.6l-0.7-0.6l-0.3-0.8l2.5,0.1
	l-0.4-0.4l-2.2-0.4l-0.4-0.4l3.6-0.2l1.2,0.3l-0.7-0.7h-3l-1.4-0.4l-1.3-2.3l0.1-1.2l1-0.3l0.7,0.2l1-0.8l0.6-0.1l0.4,3.1l2.3,1.3
	l1.1,0.2l-1.8-0.9l-1-0.8l-0.3-0.7v-1.3l0.3-0.3l0.4,0.3l0.2,1.1l0.2-2.2l0.6-0.7h1.3l1.1,0.5h0.5l1.1,0.9l0.6,2.2l1,1.6l1.7,1.9
	l-2.3,3.4l-8.1,10.5l-10.7,8.1l-2.9,1.9l-0.6,0.6l-2,1.1l-0.5,1l-2.9,0.7l-0.4-0.2l-0.5-0.9l-0.7,0.5l-1.2,0.5l-0.6-1h-1l-2,1.1
	l-0.7,0.8l-0.8,0.3l-0.8,0.7l-0.3-0.4l-1.5,2.4l-2.3,0.4l-0.1,0.7l-0.7,1.2l-1.7,0.1l-0.8,0.3v0.3l-1.1,0.3l-0.4-1.1l-0.8-0.9
	l-0.5,0.8h-0.9l-0.5,0.8l0.2,1.1l-0.5,0.1l-0.6,0.8l-1.7,0.8l-0.9-0.3l-0.3,0.4l-0.8,0.4l-0.3-0.8l-0.9-1.1l1.8-1.4l0.5-0.9
	l-0.9-1.6l-1.4,0.7l-3.2,2.3l-1.1-0.7l-0.4,0.3l-0.3-0.2l-0.7,0.4l-0.9-0.4l-1.1,0.9l-1.1,0.3l-2-0.9l-0.8-0.1l-0.2,0.2l0.2,0.8
	l-0.1,0.1l-0.8-0.7l-0.3-0.7l-0.9-0.2l-0.2-0.5l-0.2-2.8l0.2-4.3l1-2.7l-0.2-0.3l-1.2-0.3l-1.5-1.3l-0.7-0.3l-0.3,0.6l-0.7,0.3
	l-0.8-0.5l-0.9-1.7l-0.6-0.4l-0.6,0.3l-4-0.9l-1,0.4l-3.5-1l-0.4-0.2l-0.5-1.1h-1.7l-0.4-0.7l-2.9-1.7h-2l-0.7,0.5l-2.3-1.3
	l-0.7,0.1l-0.5-0.8L37,584l-1.6,1.9l0.8,1.4l-0.6,0.4l0.3,0.7l-0.3,0.5l-0.5-0.5l-0.5,0.1l-0.7-0.6l0-0.3l-1.4-0.7l-0.5,0.2
	l-0.2,0.7l-0.5,0.3l-1.8-0.2l-0.8,1.7l-0.9,0.1l-1.2-1.2l-1.5,0.3l1.9,10.4l-7.2,0.9l-4.8,0.3l-1-0.1l-2.3-0.9l-0.6,0l-0.4-2.3
	l-0.3-0.3l-1.1-1.1l-1.1,0.7L7.5,595l-1.7-1l-0.9-1.8l-1.4-0.3l-0.6-0.7l1-0.8v-1.4l-0.3-0.5l-1.4-1l-0.6-1.6l1.4-0.7L0.3,582v-0.5
	l4-4.5L4,574.8L2.6,573l-0.1-0.8l0.2-1.9l-1.3-2.5l0.8-1.1l1.4-1v0.4h0.3l0.1-0.5l2.9-1l3.7-1.8l1.3-0.2l0.2,0.8l0.7,0.2l0.1-0.5
	l2-0.6l0.8-0.6l2.3-0.3l2.3-0.8l0.9-0.4l0.1-0.4l0.9,0l1.6-1.4l1.8-0.2l0.7,0.3l2.6,0.3l1,0.3L29.9,559.8L29.9,559.8z M55,531.4
	l0.2,0.2l-0.6-0.2l-0.3-0.4h0.5L55,531.4z M53.1,528.9l-0.3-0.1l0.3-0.1L53.1,528.9L53.1,528.9z M52.8,527.8l-0.1,0.2l-0.1-0.3
	l0.2-0.5L52.8,527.8L52.8,527.8z M57.2,527.8l-0.1,0.2l-0.2-0.1l-0.1-0.4l0.5-1L57.2,527.8z M57.8,526.7v0.3l-0.2-0.8l0.4-0.4
	l0.2,0.3L57.8,526.7L57.8,526.7z M52.7,526h-0.2l0.4-0.3l0.3-0.8l0.1,0.7L52.7,526L52.7,526z M64.1,523.4l0.8,0.1l0.3-0.2l0.8,0.5
	l-1.2,0.3l-2.5-0.1v-0.6l0.3-0.3l0.5,0L64.1,523.4L64.1,523.4z M81.9,522.8h-0.4v-0.2l0.5-0.5l0.3,0.4L81.9,522.8L81.9,522.8z
	 M66.4,522.8l-1-0.6l0.1-0.1l0.4-0.1l0.7,0.3L66.4,522.8z M65,522.1l0.2,0.8l-1.7-0.2l-0.4-0.4l1.4-0.4h0.4L65,522.1L65,522.1z
	 M51.6,521.9l0.7,0.3l0.6,0.6l0.3,0.7l0.1,1l-0.4-0.1l-0.4,1.3l-0.3-0.2l-0.3-1.4l-0.7-1.5v-0.8L51.6,521.9L51.6,521.9z M50.1,521.1
	l-0.1,0.2l-0.4-0.9l0.5,0.1L50.1,521.1L50.1,521.1z M49.3,519.4h0.3l0.1,0.5l-0.4-0.3l-0.6,0.1l0.1-0.3L49.3,519.4z M127.9,507.8
	l-0.6-0.1l0.3-0.1L127.9,507.8z M75.8,469.4l1.3,1.3l4.5,1.4l1.6-0.3l3.2-4.1l2.4-1.5l3-0.8l2.9,0.4l2.3,2l6,1.4l0.4,0.7l0.6,2.7
	l2.6,3.7l0.2,4.9l0.5,2l1.4,2.4l1.1,0.5l7,0.6l3,1.1l3-0.1l2.3,0.3l7.2,5.5l5.2,3.6l3,1l0,0l-1.7,3.1l-4.4,1.9l-1.8,1.8l-1.1,2.5
	l-0.2,2.3l0.1,1l0.6,1.6l5.2,6.4l1.2,2.1l0.2,0.7l0.1,1.5l-0.2,1.1l-1.8,4.7l0.1,0.3l-1,3.1v2l2.1,4.4l6,14.2l0.8,1.3l-1.3,1.1
	l-0.6,1.2l0.8,3.6v1.3l-0.4,0.5l0.1,1.5l-0.3,0.3l0.5,1.1l1,0.1l0.5,1.6l0,0l-5.7,0.3l0.4-0.6l0.1-1.4l-1.9-3.2l-2.9-1.3l-1,0.2
	l-0.4-1l-0.7-0.6l-1.4,0.2l-1.3,0.8l-0.9,0.3h-0.7l-2.4,1.5h-1l-1.8-0.3l-1.3-0.8l-3.8-0.7l-3.8-1.4l-0.4-0.1l-0.2,0.2l-0.9-1.1
	l-1.7-0.5l-1.7-1.7v-0.4l-0.8-1.1l0.6-0.9l-2.6-0.8l-0.2-1.1l-0.3-0.1l-0.3,0.5L104,550l-0.8-0.9h-0.9l-0.3-0.5l-0.6-0.3l-0.2-0.6
	l-1.7-1.1l-0.9-1.5l-0.9-0.6l-2.1,1.4l-1.8,0.2l-2.6,1.8l-1.3-0.6l-0.2,0.1l0.2,1.3l-0.7,0.2l0.7,1.6v0.9l-0.9,1.7l-0.4,1.7
	l-0.4,0.4l-0.1,0.7l-0.4,0.4l-1.8,5.1l-1.1,0.5l-3.5-1.1l-1.4,0.7l-0.8,0.8l-1.2-0.1l-0.8,0.7l-1.3,0.2l-0.8,0.4l-2.7,0.2l-0.1,0.3
	l-0.7-0.2l-1.7-2l-1.6-1.1l-0.2-0.4l-2.2-1.5l0.3-1.1l-1.9-0.1l-1.7-1.1l-1.5,0.8h-1.6l-0.5-0.2l-0.9-0.8l-0.8-2.9l-0.8,0.1
	l-0.7-1.6l-1.7-1.7l-2.4-2l-1.1-0.6l-4.9-0.2l-0.9,0.8l-0.1,0.8l-1,0.6l-0.4,0.2l-1-0.2l-0.7,0.3l-0.8-0.2l-1.2,0.3l-1.2-0.9l-0.1-2
	l-0.5,0.1l-0.1,2.1l-0.8-0.2v-0.8l-0.3,0.7l-0.2-0.1l0.1-0.7l-0.2-0.1l-0.2,0.6v0.2l1.7,0.8v0.2l-1.4-0.3l-0.9,0.2v0.4L35,550
	l-0.8,0.4l-0.8-0.4l-0.4-0.9l-1.4-1.3l-0.9,0.1l-0.3-0.5l-2.3-1.6l-1.5-1.4l-0.7-1l-2.3-4.3l-1.5-2.2l-1.6-1.5l-1-0.3l-4.3-3.1
	l-1.7-2.2l-0.8-0.4l-0.3-0.8l-0.6-0.4l0.2-2l0.7-2l3.4-2l3.4-2.7l2.5-1.6l3.9-2.3l1.3-0.4l2.1-1.6l4.3-2.2l1.5-0.3l1.9,0.4l1.4-0.1
	l1.7,0.4l1.8,1.2h0.7l4.9-1.9l2.2-0.5l0.7-0.5l0.6-3.1l0.1-1.9l0.3-0.1l-0.2-0.6l-0.4-0.1l-0.3-0.4l1.1-0.2l0.6-0.9l3.2-3.3
	l-0.2-0.4l0.8-0.2l1-2.1l-0.5-0.6l0.2-0.2h0.6V493l-2.3-0.8l-1.8-1.5l-1.7-2.7l-0.5-1.5l-0.2-1.5l0.1-1.7l1.2-2.9l1.3-2.3l0.9-1
	l0.9-0.4l3.2-1l1.7-0.1l5-2h4.1l4.2,0.8l0.7-3.2l0.7-1L75.8,469.4L75.8,469.4z M70.3,485.8l0.5,0.1v0.3l-0.8-0.2l-0.2-0.8l-0.7,0.1
	l-0.7,0.5l-0.6,1.3l0.2,0.4l-4.7,3.2l-0.9,0.6l-4.6,1.6v2.8l0.8,0.1l-0.3,1.1h-0.9l-1.3,3.2l0.3,0.1l0.5-0.6l0.1,0.4l-1.4,1.6
	l1.5,0.8l-0.2,0.1l-1.4-0.6l-0.5,0.5l0.3,1.1l-0.4,0.7l-0.1-0.3l0.2-0.5l-0.9-0.8l-1.5,1.3v0.2l0.3,0.1l-0.4,0.2l-0.1,0.7l-0.3,0.1
	v0.4l-0.3,0.5l-0.4,3.8l0.3-0.1l-0.1,0.6l0.8-0.6v0.5l1.6-0.3l1.8,1.2h0.5l0.4,0.7h1.8l1.5-0.9l1.1,0.2l0.7-0.6l1.9,0l0.4-0.5
	l1.9,0.4l1-1l3-0.3l0.6-0.6h1.3l1.7,0.6l1.8-0.6h0.7l0.6,0.8l3,0.6l1.7,1.8l2.6,4.6l0.5-0.5l0.1,0.5l-0.6,0.2l0.1,0.4h0.3l0.2,0.9
	l0.7,1.2l0.4,0.1l-0.2,0.8l-1,0.7l-2.7,0.8l-1.8,2.5l-1.3,0.4l-0.6-0.3l-1.1-1.2l-0.2-0.7l-1.5-1l-2.8,0.6l-1.9,1.5l-2.7-0.6
	l-0.1,0.2l-2.1-1.2l-1.6-0.2l-0.3,0.3l-0.2-0.2l-4.2,2.5l-1,1.2l-2.3,1.6l-1.1,1.8l-0.5,0.3l-0.8-1.8l0.4-1.5l0.5,0.2l0.5,1.7h0.2
	l-0.1-0.6l-0.4-0.5v-0.6l-0.5-0.3l-0.5-2l-1.5-2.1l1.9-2.5l-0.2-0.1l-0.4,0.5l-1.2,1.8l-0.7,0.2l-1.1-0.7l-1.1-1.2l-1.5-0.8
	l-0.2-0.5l-0.5,0.2l-0.7-0.4l-1.3-3.2l-0.1-0.7l0.3-0.1l0.1-0.5l-1.2,0.3l-1.8,1l0.3,2.4l0.3,0.6l1.4,1.3l-0.1,0.5l0.9,0.9l0.1,0.5
	l1.3,0.6l1.8,1.5l0.6,0.2l1.4,2.9l1,2.8l2.1,3.1l0.6,0.5v0.6l0.3-0.5l0.5,1l-0.3-0.9l0.5,0.3l-0.1-0.3l2.1-0.4l-0.5-0.2l-1.4,0.2
	l-0.5-0.6l1.5-0.6l0.9-0.9l1.2-0.3l0.1-0.2l-0.5-0.4l-0.1-0.5l1-1.9l0.2-1.2l1.7-1.2h0.8l-0.4,1h0.5l0.2-0.7l3.8-0.1l3.2,0.4
	l1.3-0.4l0.4-0.6l0.4-0.2l1.5-0.2l0.3-0.3l1.9-0.1l0.8,0.2l1.2,0.7l0.3,0.5v0.4l0.6,0.5l1.9,0.4L80,525l-0.1-0.7l0.6-0.4h0.3
	l0.3,0.8l2.5-0.7l1.4,0.5l0.4-0.4l0.4,0.3l0.3-0.6h0.9l0.8-0.5l1,0.4h1.3l0.5,0.6l0.2,1.3l0.3,0.7l1.4,2l2.4-1.1l1.8,0.3l3.5,1.3
	l1.6,0.8l0.3-0.1l-0.1,1.1l0.3,0.9h0.5l-0.2-2l1.1,0.7l0.8,0.1l0.7,1.3l0.5,0.1l0.1,0.3l1.9,1.3l0.9,0.9l1.2-0.4l0.5,0.8l-0.3,1.1
	l0.4,1.2l0.3,0.2l0.4,0.8v0.4l-0.5,0.8l0.1,0.2l-0.3,0.3l0.3,0.3l0.3,1.1l0.4,0.2l1.1,1.6l0.2-0.1l0.2,0.3l-0.2,0.1l1.3,2h0.8
	l1.4,3.1l1.5,0.3l3.7,2.3l0.1-0.2l0.3,0.1l0.6,0.9l0.9,0.1l2.4-0.4l0.8-0.8l2.6-1.3l0.8,0l0.4-0.5l3,0.5l0.5,0.3l0.3,0.5l0.8,0.2
	l1.7-0.1l-0.5-4.9l0.4-1.2l-0.9-6.9l-6.8-3.1l-0.6-1l-0.1-0.6l0.9-1.8l-1.2-1l-0.3-0.7l-1.8-0.1l-0.6-0.3l-0.4,0.6l-0.7,0.2h-0.3
	l-1-1.1l-1.3,0.5l-3.8-0.2l-0.2-0.2l-1.4,0.1l-0.1-0.5l-2.7-0.2l-0.5-0.5l0.2-0.4l-0.4-0.1l0.1-0.2l-0.2-0.3l-0.6,0l-0.8-2.2
	l0.2-0.4l-1-0.9l-0.4,0.2l-0.3-0.3l-0.1-1.2l-2.6-0.5l-1-0.6l0.4-1.2l-1-1.5l-1.7-0.7l-0.6-0.8l-1-0.6l-2.2-0.3l-0.8-1.2V513l1-1.5
	l1.9-0.2V511l1.1-0.4l0.5,0.2l1-0.7l0.7,0.3l2.5-1.8l1.2-0.1l1.1-1.2l0.9-0.2l0.4,0.1l0.2-0.4l2.1-0.6l1.3,0.4l0.8-0.1l2,0.4
	l0.5,0.5l0.5,1.4l0.4-0.2l0.3,0.1l1,1l-0.2-0.7h1.7l2.8-0.6l0.5,0.4l1.3-0.1l0.2,0.2l0.3-0.7l1.8-0.3l0.1-0.6H128v-0.2l1-0.6
	l-0.1-0.9h-0.7l-0.7,0.5l-0.5-0.3l-0.8,0.5l-4.7-0.1l-1.5-3.1l-1.3-1.1h-0.6l-0.6-0.5l-0.1-2.6l0.2-0.4l0.7,0.3v-0.8l2.4-2.1l1.6,0
	l2.9,0.8l1.1,0.6l0.8,0.7l2.2,1l2.7,1.6l-0.1-1.3l-0.7-1.2l-1.7-1l-0.1,0.3l-0.5,0.1l-2.5-1.6l-0.2-0.3l0.5-0.9l-0.1-0.2h-0.3
	l-0.7,1l-2.1-0.7l0.1-0.3l-0.3-0.3l0.1-0.2l0.4,0.3l2.9-0.2l0.1-0.5l-0.5-0.1v-0.3l-0.3-0.2l-1.7,0.2l-0.8,0.5l-0.1-0.1l0.7-0.4
	l1.6-0.1l0.2-0.4h0.2v0.3l0.5,0l0.1-0.4l0.4-0.2l-0.7-1.9l-0.5-0.4l-0.3-0.6l-1,0.6l-5.6,0.8l-2.2,1.5l0.2,0.5l1.5,1.5l-0.3,0.8
	h-0.7l-0.4,0.8l0.4,0.2v0.3l-0.3,0.3h-0.3l-0.1,0.7l-2.2,1.4l-0.3,0.8l-1.5,1.6l-1.9,0.9l-1.5-0.7l-1.6,0.8l-0.3,0.5l-2.1,0.8
	l-2.2,1.2l-2.6,0l-0.9,0.8l-2.7,0.2l-1.2-0.6l-2-2.1h-0.4l-1-2l-0.4-0.4h-0.3l-0.8,1.3l-1,0.3v-0.3l-0.8-0.1l-0.6,0.2l-3-0.9
	l-0.2-0.4l3.6-3.2l1.2-0.5l-1.3,0.3l-3.6,3.2l-0.8,0.3l0.1-2.4l-0.8-1.4l0.2-0.4l-0.4-1.6l-0.6-0.4l-0.8-1.3l0.1-1.1l-2.8-2.6
	l-0.4-0.2l-1.3,0.4l-3.9-2l0.2-0.7l-0.1-0.8l-0.8-1.2l-0.7-0.4l-1-0.1l-1,0.1L70.3,485.8L70.3,485.8z"/>
<path class="st0" d="M506.5,110.5L476,96.2c-11.9-5.6-26-3.3-35.5,5.8l0,0"/>
<path id="GRQ" class="st2" d="M468.1,123.8l4.3,1.6l2-5.3l1.2-0.4l0.4-3.4l2.4-6.4l0.3-1.8l1-1l1.1-1.8l0.6-0.2l0.7-0.7l0.2-2
	l0.3-0.5l1.5-0.7l2.2-1.5l0.2-0.3l1.1-0.3l1.4-1.3l0.1-0.9l2.7-0.5l2.7-0.9h1.4l1.3-0.3l4.3,1.9l1.1,0.1l1.1,2l-0.1,0.5h0.6l2.3,4.1
	l1.1,3.2l2-0.9l0.4,0.1l0.7,1.2v1l0.5,1.9h1.3l2,1.8l0.8,1l0.7,0.3l1.1,2.9l0.7,0.6l0.4,1.2l0.7,0.3v1.8l6.5-3l2.7-0.7l6.6,0.3
	l1.3,0.8l0.8,1.1l6.8,7l3.1,3.6l2.5,2.3l9,10.3l7.5,7.6l4.5,6.2l8.2,12.4l0.2-0.1l1.3,1.4l3.3,0.9l-4.5,10.9l3.8,0.4l0.5,1.9
	l0.6-0.1l2.3,3.4l0.4,0.1l0.6,0.9l0.4,0.1l0.6-0.4l0.2,0.1l-0.4,1.2l-0.1,1.5l3.2-0.2l0,0l-3.3,7.5v3l-2.8,39.9l0.1,0.6l-2.2,2.6
	l-1-0.6l-1.2,0.1l-2.4-0.5l-0.8-0.6l-0.4-0.6L575,242l-1.5-1l-1.2-0.4l-1.1,1.1l-1.3-0.1l-1,1.1l-1.2-0.1l-1.5,0.4l-1.2-0.5
	l-0.3-0.4h-1.4l-0.5-1.6l-1.7-0.5l-0.4,0.1l-0.8-0.6l-2.5,0.3l-1.1-0.9l-1.7,1l-1.3-0.1l-0.5,0.2l-2.3-0.9l-0.6,0.1l-1.6,1l-2.4-0.4
	l-0.5-0.6l-1.6,0.2l-0.5-0.5l-0.8-0.1l-1.2,0.2l-0.9,0.5l-0.5,0.8l-1.4-0.5l-0.9,0.6l-0.3-0.5l-1.4,0.6l-2.2,2.3l-0.6,1l-1.5,0.7
	l-0.6,1.1l0,0l-1.8-0.1l0.6-1.6l-0.3-0.5l1-1.1l-0.2-0.5l-0.3-0.1l0.8-1.8l-5.4-1.9l-9.6-4.6l-10.1,2.3l-1.3,0.7l-4.7,3.9l-0.1,0.5
	l0.4,3l0.5,1.5l0.4,4.4l-0.2,0.4h-0.4l-0.1-0.6h-0.4l-0.3-0.6h-0.7l-0.4-0.8h-1l-1-0.4l-1-0.1l-0.3,0.3l-1.2-0.1l-0.2-0.4l-0.7-0.3
	v-0.6l-0.7-0.4l-0.6,1.9l-0.5,0.5l-1.7,0.5l-0.9-0.1l-1-0.6l-0.5-0.7l0-1l-0.4-0.4l-0.2-0.6l-0.4,0.8l-1,0.7l-0.1,0.6l-0.5,0.4
	l-1.4-0.7l-0.5,0.9l-1.5-0.1l-0.4,0.7l-1.4,0.8l-0.2-0.1l-0.1-0.7H478l-0.6-0.8l-0.1-0.8l-0.5-0.8l0.1-1.1l-0.7-1l-0.3-1.3l-1-1.3
	l0.2-0.3l-0.7-0.5h-0.5l-0.3-0.3l-0.1-0.5l-1.4-0.9l-0.4-0.5l-1.2-0.4l-1.2-1.1l0-1.2l0.4-0.5l-0.5-0.9l-1,0.1l-2,0.9l-1.2,0.1
	l-0.6,0.8l-0.5,0.1l-0.5-0.3l-1-1.3L462,235l-0.7,0.9l-0.4,0.1l-0.8-0.5l-0.5-0.7l-1.1-0.1l-0.9-0.7l-0.8-1.4l0,0l-0.9,0.1l0,0
	l-1.2-0.6l-0.2-0.4l-0.5,0.2l-1.4-0.8l-0.2-0.7l-1.3,0.5h-0.9l-0.9,1.2l-2-0.2l-0.4-0.4l-1.2,0.5l-0.8-1.6l-0.5-0.5l-0.2,0.1
	l-0.5-0.3l-1-1.3l-0.8-2.8l-1.8-3.9l-3.2-8.2l0.7-1.3l0.3-0.2l3.6-0.9l3.1-1.5l0.2-1.3l5.2-5.7l-1-1l-3-4.1l-1.1-0.6l-5.6-6.5
	l-0.8-1l-0.4-1l-1.2-1.6l0,0l6.7-5.1l6.6-4.3l4.2-5.9l2-1.6l0.7-1.4l1.1-0.7l1-0.1l6.5,0.6l5,5.1l9.4-6.7l5.5-10.4l-10.4-16.1
	l0.7-8.9l-9.4-3.6L468.1,123.8z"/>
<path id="RTM" class="st2" d="M156.1,478.6l1.1,0.9l0.3-0.1l0.5,0.1l0.2,0.5l1.1,0.6l0.1,0.4l-2.9,0.1l-1.1-0.3l-1.1-1.2l1.5-1
	L156.1,478.6L156.1,478.6z M144.2,470.6h1.3l4,1l5.3,2.4l2.5,0.8l0.9,0.5l0.1,0.8l-3.7,1.4l-2.6-0.1l-1.9-0.5l-2.5-1.5l-5-3.4
	l-0.4-0.4l0.1-0.7l0.6-0.4L144.2,470.6L144.2,470.6z M179.8,322.9l10.7,4.9l1-1.9l2.1-0.6h0.4l3.9,1.6l-1.3,1.9l-1,2.7v0.6l-1.5,3.2
	l-3.2,3.1l0.3,2l-1.3,6.6l-1.3,1.6l-0.1,0.5l0.2,1.3l1.1,0.9l2.3,0.5l1.7-0.6l2.4,0.9l2.3,0.3l3.2-0.2l5.1-3l3-0.2l0.4-0.3l0.2,0.1
	l1.2-1.2l1.5-0.6l3.1,0.5l-0.2,2.9l0.6,1.3l0.1,0.9l-0.2,0.5l0.9,0.7l1.2-1.5l1.9-1.2l1.5-0.3l1.4-1.1l0.9-1.3l1.6-0.7l1.6,0.4l0,0
	l0.1,1.7l1.1,1.9v2.5l0.3,1.4l1.1,0l0.3,0.8l4.5,5l2.4,0.9l5.3,3.7l-0.1,0.4l-3.2,1.3l0.6,4l-0.7,0.3l-0.1,0.3l-1.1,0.2l-3.1-0.4
	l-0.9-0.7l-0.4-1.5l-0.9,0.5l-1.5,0.3l-1.3,0.5l-0.9,1.3l-0.3,2.1l-2,0.9l-0.3,1l5.4,3.9l-0.1,2.3l0.3,3.9l0.3,1.3l0.9,1.1l-0.1,1.4
	l1.6-0.4l4.9,0l-0.8,1.6l-3.3,1.2l-2.6,2l-2,3.2l-1.1,0.9l0.3,1.9l-1.4,1v0.9l0.4,1.4l1.8-0.2l1-0.7l2.6,0.1l1-0.5l1.3,2.5l-0.1,0.3
	l-6.4,1.6l1.4,1.9l1.2,0.4l1,1.4l-0.6,0.3l1.6,2.3l1.9,2.1l1.2,0.7l0.4,1.4l1.1,0.9l1.3,5l1.6-0.6l1.5-0.1l3.1-0.8l1.2-1.5l1.1-2.5
	l1.1-1.1h0.9l2.4,1l1.2,0.1l0.9-0.6l2.1-2.9l1.4-0.9l0.6-0.1l1.2,0.2l2.4,1.9l1.6-0.2l0.8-1.1l0.4-1.2l1-1.1l2.8-2.2l0.5-0.8l3-1.5
	l1.7-0.5l1.8,0.1l1.2,0.4l1.6,0.6l2.1,1.3l0.4,0.8l0.4,2.6l0.8,1.7l1.1,0.7l2.8,0.5l1,0.7l0,0l-4.5,8.7l-0.5,0.1l0.1,0.6l-2,2.9
	l0.1,1.6l-0.7-0.4l-2.2,4.1l-0.3,2.2l-0.4,0.7l-1.7-0.4l-1,0.3l-1-0.3l-0.4,0.4l-0.2,1.3l-1,1.6l-1.1,0.6h-1.9l-1.3,0.6l-0.3,0.9
	l0.4,0.9l1.1,0.7l-0.6,0.6l-1.8,0.7l-0.5,0.6l-1.5-0.6l-4,0.1l-1.8-1.6l-0.4,0.4l0.6,1.9l-0.4,1.4l1,1.6l3.4,0.5l-1,5h-2.4l0,0
	l-5.4-0.8l-4.6-1h-2.6L246,452l-3.7,1.9l-2.9,3l-2.4,1.8L236,459l-1.7,0.4l-4-0.6l-2.1,0.1l-2.2,0.7l-2.4,1.3l-2.4,2.9l-1.5,4.6
	l-0.7,1.1l-2,2.2l-3.5,3.1l-4.8,3.4l-10,2.9l-2.5,2l-11.9,3.3l-3.5-0.4l-11.9-4l-2.2,2l-1,0.7l-0.4,1.1h-0.9l-0.5,1l-2,2l-0.4,1.6
	l-1.1,1.8l-1.5,1.4l-1.4,0.8l-3.3,1.5l-3.1,0.7l-2.2,1l-3.8,0.9l-4.3-0.5l0,0l-3-1l-5.2-3.6l-7.3-5.5l-2.3-0.3l-3,0.1l-3-1.1l-7-0.6
	l-1.1-0.5l-1.4-2.4l-0.5-2l-0.2-4.9l-2.6-3.7l-0.6-2.7l-0.4-0.7l-6-1.4l-2.3-2l-2.9-0.4l-3,0.8l-2.4,1.5l-3.2,4.1l-1.6,0.3l-4.5-1.4
	l-1.3-1.3l0,0l2.1-1.1l0.8-0.8l1.4-3.8l0.4-1.3l-0.1-0.6L79,458v-1.6l1.2-1.9l1.4-1.1l1.5-0.3l2.3-0.9l1.8,0l1.4-0.4l4.6-2.2
	l4.8-1.8l1.8-0.5l3.3,0l1.6,0.7l0.7,0.6l-1.4-0.3l-0.2,1.1l2.1,1.3l1,1.2l0.8,0.3l0.2-0.2l-0.5-0.6v-0.5l0.7,0.2l0.5-0.4l0.3,0.2
	l1.6-1.8l-0.3-0.3l0.2-0.3l1.2-1l1.2-0.5l0.1-0.9l-0.7-1.7l-4.7-7l-0.4-1l0.3-1.9l0.8-1.1l1.8-3.9l0.5-0.4l-0.1-0.8l-1.2-1l-0.9-0.4
	l-0.6,1v1.1l-0.4-0.4h-0.2l-0.1,0.5l-0.2-0.1l-0.4-0.7l-1-0.3l-0.7,0.6l-0.3-0.1l-0.8,0.5l-1.1,0.1l-0.6-0.3l-0.3-0.5l0.2-1.4l2.3-8
	v-2.1l-0.2-0.2L103,417v-1.4l1-2.3l0.7-0.5l1.1,0.2l1.1-1.7l0.4-0.1l1.5,0.7l0.3-0.2h1.2l1.1,0.7l2,0.8l1,0.8l3.3-3l2.3-1.5l1.3-1.1
	l0.7-1l1-0.7l1.8-3l2-2.8l12.2-14.1l3.4-4.4v-0.4l0.4-0.1l0.7,0.6l0.7-1.1l-0.2-0.1l-0.6,0.8l-0.3-0.3l-0.1-0.5l3.3-3.3l1.1-0.8
	l2.6-2.8l7-9l4.8-7l6.1-10.6l4.4-8.3L179.8,322.9L179.8,322.9z M110.4,449.5l-1.6,1.9l0.3,0.3l-0.3,0.9l0.1,0.5l-0.5-0.1l0.2,0.4
	l-0.3,0.3l0.2,0.2l-0.1,0.3l0.3,0.1l0.7-0.8l1.1,0.6l1.5,1.4l5.8,2.6l2,1.5l4.6,2.3l3,2l4.4,1.5l-0.1,0.2l0.3,0.2l0.4-0.1l3.4,3.8
	l2.1,1.8l1.9,1.3l0.4,0.8l2.7,3.4l0.8,0.7l3.5,2.2l1.5,0.3l2.6,1.8l2.8,1.1l2.1,0.4l5.8,0.3l1.1-0.1l0.5-0.4l0.3-0.6v-0.9h0.4l1-3.3
	l-1.2-0.7V477l-0.3,0.2l-6.2-3.6l-5.6-2.5v-0.2l-0.4-0.1v0.2l-6.6-2l-3.8-1.4l-1.2-0.9l-1.7-2.5l-0.2-0.5l0.2-0.3v-1.6l-2.4-2.7
	l-2.3-1.3l-1.4-0.1l-0.8,0.3l-0.6-0.3l-3.2-3.9l-0.6-0.3l-0.4-0.6l-1.3,0.2l-1-0.2l-0.3,0.1l-0.2,0.5l-0.4,0l-1.6-0.1l-0.7-0.5
	l0.1-0.8l-0.5-0.1l-0.3,1l-0.6-0.8l-3.7-1.3l-1.2-1.1l-1.2-1.9l-2.3,1.1l-0.5,0.6L110.4,449.5L110.4,449.5z"/>
<text transform="matrix(1 0 0 1 76.2047 234.9644)"><tspan x="0" y="0" class="st3 st4 st5">AMSTERDAM</tspan><tspan x="-10.8" y="16.9" class="st3 st6 st5">Airport Schiphol</tspan></text>
<text transform="matrix(1 0 0 1 29.2566 355.7422)"><tspan x="0" y="0" class="st3 st4 st5">ROTTERDAM</tspan><tspan x="-20.8" y="16.9" class="st3 st6 st5">The Hague Airport</tspan></text>
<text transform="matrix(1 0 0 1 195.7042 612.8937)"><tspan x="0" y="0" class="st3 st4 st5">EINDHOVEN</tspan><tspan x="20.4" y="16.9" class="st3 st6 st5">Airport</tspan></text>
<text transform="matrix(1 0 0 1 443.6421 641.0046)"><tspan x="0" y="0" class="st3 st4 st5">MAASTRICHT</tspan><tspan x="-6.5" y="16.9" class="st3 st6 st5">Aachen Airport</tspan></text>
<text transform="matrix(1 0 0 1 354.3536 122.6002)"><tspan x="0" y="0" class="st3 st4 st5">GRONINGEN</tspan><tspan x="-2" y="16.9" class="st3 st6 st5">Airport Eelde</tspan></text>
</svg>
